<svg xmlns="http://www.w3.org/2000/svg" width="1280" height="860" viewBox="0 0 1280 860">
<rect width="100%" height="100%" fill="#ffffff" />
<text x="110.00" y="42.00" font-family="Helvetica, Arial, sans-serif" font-size="28" text-anchor="start" font-weight="700" fill="#111827">Figure 3 Candidate | Same-axis boundary-cost comparison</text>
<text x="110.00" y="68.00" font-family="Helvetica, Arial, sans-serif" font-size="16" text-anchor="start" font-weight="400" fill="#111827">Lower bound versus homodyne-conditioned and displaced on-off measurement routes for coherent-boundary discrimination</text>
<text x="55.00" y="72.00" font-family="Helvetica, Arial, sans-serif" font-size="24" text-anchor="start" font-weight="700" fill="#111827">a</text>
<text x="55.00" y="442.00" font-family="Helvetica, Arial, sans-serif" font-size="24" text-anchor="start" font-weight="700" fill="#111827">b</text>
<line x1="110.00" y1="350.00" x2="1230.00" y2="350.00" stroke="#e5e7eb" stroke-width="1.00" />
<text x="96.00" y="355.00" font-family="Helvetica, Arial, sans-serif" font-size="14" text-anchor="end" font-weight="400" fill="#111827">0.0</text>
<line x1="110.00" y1="263.33" x2="1230.00" y2="263.33" stroke="#e5e7eb" stroke-width="1.00" />
<text x="96.00" y="268.33" font-family="Helvetica, Arial, sans-serif" font-size="14" text-anchor="end" font-weight="400" fill="#111827">1.0</text>
<line x1="110.00" y1="176.67" x2="1230.00" y2="176.67" stroke="#e5e7eb" stroke-width="1.00" />
<text x="96.00" y="181.67" font-family="Helvetica, Arial, sans-serif" font-size="14" text-anchor="end" font-weight="400" fill="#111827">2.0</text>
<line x1="110.00" y1="90.00" x2="1230.00" y2="90.00" stroke="#e5e7eb" stroke-width="1.00" />
<text x="96.00" y="95.00" font-family="Helvetica, Arial, sans-serif" font-size="14" text-anchor="end" font-weight="400" fill="#111827">3.0</text>
<line x1="110.00" y1="720.00" x2="1230.00" y2="720.00" stroke="#e5e7eb" stroke-width="1.00" />
<text x="96.00" y="725.00" font-family="Helvetica, Arial, sans-serif" font-size="14" text-anchor="end" font-weight="400" fill="#111827">1.0</text>
<line x1="110.00" y1="670.00" x2="1230.00" y2="670.00" stroke="#e5e7eb" stroke-width="1.00" />
<text x="96.00" y="675.00" font-family="Helvetica, Arial, sans-serif" font-size="14" text-anchor="end" font-weight="400" fill="#111827">1.5</text>
<line x1="110.00" y1="620.00" x2="1230.00" y2="620.00" stroke="#e5e7eb" stroke-width="1.00" />
<text x="96.00" y="625.00" font-family="Helvetica, Arial, sans-serif" font-size="14" text-anchor="end" font-weight="400" fill="#111827">2.0</text>
<line x1="110.00" y1="570.00" x2="1230.00" y2="570.00" stroke="#e5e7eb" stroke-width="1.00" />
<text x="96.00" y="575.00" font-family="Helvetica, Arial, sans-serif" font-size="14" text-anchor="end" font-weight="400" fill="#111827">2.5</text>
<line x1="110.00" y1="520.00" x2="1230.00" y2="520.00" stroke="#e5e7eb" stroke-width="1.00" />
<text x="96.00" y="525.00" font-family="Helvetica, Arial, sans-serif" font-size="14" text-anchor="end" font-weight="400" fill="#111827">3.0</text>
<line x1="110.00" y1="470.00" x2="1230.00" y2="470.00" stroke="#e5e7eb" stroke-width="1.00" />
<text x="96.00" y="475.00" font-family="Helvetica, Arial, sans-serif" font-size="14" text-anchor="end" font-weight="400" fill="#111827">3.5</text>
<line x1="110.00" y1="90.00" x2="110.00" y2="350.00" stroke="#e5e7eb" stroke-width="1.00" />
<line x1="110.00" y1="460.00" x2="110.00" y2="720.00" stroke="#e5e7eb" stroke-width="1.00" />
<text x="110.00" y="378.00" font-family="Helvetica, Arial, sans-serif" font-size="14" text-anchor="middle" font-weight="400" fill="#111827">0.01</text>
<text x="110.00" y="748.00" font-family="Helvetica, Arial, sans-serif" font-size="14" text-anchor="middle" font-weight="400" fill="#111827">0.01</text>
<line x1="447.15" y1="90.00" x2="447.15" y2="350.00" stroke="#e5e7eb" stroke-width="1.00" />
<line x1="447.15" y1="460.00" x2="447.15" y2="720.00" stroke="#e5e7eb" stroke-width="1.00" />
<text x="447.15" y="378.00" font-family="Helvetica, Arial, sans-serif" font-size="14" text-anchor="middle" font-weight="400" fill="#111827">0.02</text>
<text x="447.15" y="748.00" font-family="Helvetica, Arial, sans-serif" font-size="14" text-anchor="middle" font-weight="400" fill="#111827">0.02</text>
<line x1="892.85" y1="90.00" x2="892.85" y2="350.00" stroke="#e5e7eb" stroke-width="1.00" />
<line x1="892.85" y1="460.00" x2="892.85" y2="720.00" stroke="#e5e7eb" stroke-width="1.00" />
<text x="892.85" y="378.00" font-family="Helvetica, Arial, sans-serif" font-size="14" text-anchor="middle" font-weight="400" fill="#111827">0.05</text>
<text x="892.85" y="748.00" font-family="Helvetica, Arial, sans-serif" font-size="14" text-anchor="middle" font-weight="400" fill="#111827">0.05</text>
<line x1="1230.00" y1="90.00" x2="1230.00" y2="350.00" stroke="#e5e7eb" stroke-width="1.00" />
<line x1="1230.00" y1="460.00" x2="1230.00" y2="720.00" stroke="#e5e7eb" stroke-width="1.00" />
<text x="1230.00" y="378.00" font-family="Helvetica, Arial, sans-serif" font-size="14" text-anchor="middle" font-weight="400" fill="#111827">0.10</text>
<text x="1230.00" y="748.00" font-family="Helvetica, Arial, sans-serif" font-size="14" text-anchor="middle" font-weight="400" fill="#111827">0.10</text>
<line x1="110.00" y1="90.00" x2="110.00" y2="350.00" stroke="#111827" stroke-width="1.50" />
<line x1="110.00" y1="350.00" x2="1230.00" y2="350.00" stroke="#111827" stroke-width="1.50" />
<line x1="110.00" y1="460.00" x2="110.00" y2="720.00" stroke="#111827" stroke-width="1.50" />
<line x1="110.00" y1="720.00" x2="1230.00" y2="720.00" stroke="#111827" stroke-width="1.50" />
<text x="670.00" y="408.00" font-family="Helvetica, Arial, sans-serif" font-size="18" text-anchor="middle" font-weight="400" fill="#111827">Target boundary error ε</text>
<text x="670.00" y="778.00" font-family="Helvetica, Arial, sans-serif" font-size="18" text-anchor="middle" font-weight="400" fill="#111827">Target boundary error ε</text>
<text x="28.00" y="220.00" font-family="Helvetica, Arial, sans-serif" font-size="18" text-anchor="start" font-weight="400" fill="#111827">Required mean photons n̄</text>
<text x="28.00" y="590.00" font-family="Helvetica, Arial, sans-serif" font-size="18" text-anchor="start" font-weight="400" fill="#111827">Penalty ratio n̄ / n̄LB</text>
<text x="110.00" y="66.00" font-family="Helvetica, Arial, sans-serif" font-size="18" text-anchor="start" font-weight="600" fill="#111827">Photon cost versus target boundary error</text>
<text x="110.00" y="436.00" font-family="Helvetica, Arial, sans-serif" font-size="18" text-anchor="start" font-weight="600" fill="#111827">Constant-factor overhead above the lower bound</text>
<polyline fill="none" stroke="#111827" stroke-width="3.80" points="110.00,280.04 117.04,280.35 124.09,280.66 131.13,280.97 138.18,281.28 145.22,281.59 152.26,281.90 159.31,282.21 166.35,282.52 173.40,282.83 180.44,283.14 187.48,283.45 194.53,283.76 201.57,284.07 208.62,284.38 215.66,284.69 222.70,285.00 229.75,285.31 236.79,285.62 243.84,285.93 250.88,286.24 257.92,286.55 264.97,286.86 272.01,287.17 279.06,287.48 286.10,287.79 293.14,288.10 300.19,288.41 307.23,288.72 314.28,289.02 321.32,289.33 328.36,289.64 335.41,289.95 342.45,290.26 349.50,290.57 356.54,290.88 363.58,291.19 370.63,291.49 377.67,291.80 384.72,292.11 391.76,292.42 398.81,292.73 405.85,293.03 412.89,293.34 419.94,293.65 426.98,293.96 434.03,294.27 441.07,294.57 448.11,294.88 455.16,295.19 462.20,295.49 469.25,295.80 476.29,296.11 483.33,296.42 490.38,296.72 497.42,297.03 504.47,297.34 511.51,297.64 518.55,297.95 525.60,298.25 532.64,298.56 539.69,298.87 546.73,299.17 553.77,299.48 560.82,299.78 567.86,300.09 574.91,300.40 581.95,300.70 588.99,301.01 596.04,301.31 603.08,301.62 610.13,301.92 617.17,302.23 624.21,302.53 631.26,302.83 638.30,303.14 645.35,303.44 652.39,303.75 659.43,304.05 666.48,304.35 673.52,304.66 680.57,304.96 687.61,305.26 694.65,305.57 701.70,305.87 708.74,306.17 715.79,306.48 722.83,306.78 729.87,307.08 736.92,307.38 743.96,307.68 751.01,307.99 758.05,308.29 765.09,308.59 772.14,308.89 779.18,309.19 786.23,309.49 793.27,309.79 800.31,310.09 807.36,310.39 814.40,310.69 821.45,310.99 828.49,311.29 835.53,311.59 842.58,311.89 849.62,312.19 856.67,312.49 863.71,312.79 870.75,313.08 877.80,313.38 884.84,313.68 891.89,313.98 898.93,314.27 905.97,314.57 913.02,314.87 920.06,315.16 927.11,315.46 934.15,315.76 941.19,316.05 948.24,316.35 955.28,316.64 962.33,316.94 969.37,317.23 976.42,317.53 983.46,317.82 990.50,318.11 997.55,318.41 1004.59,318.70 1011.64,318.99 1018.68,319.28 1025.72,319.58 1032.77,319.87 1039.81,320.16 1046.86,320.45 1053.90,320.74 1060.94,321.03 1067.99,321.32 1075.03,321.61 1082.08,321.90 1089.12,322.19 1096.16,322.47 1103.21,322.76 1110.25,323.05 1117.30,323.34 1124.34,323.62 1131.38,323.91 1138.43,324.19 1145.47,324.48 1152.52,324.76 1159.56,325.05 1166.60,325.33 1173.65,325.62 1180.69,325.90 1187.74,326.18 1194.78,326.46 1201.82,326.74 1208.87,327.03 1215.91,327.31 1222.96,327.59 1230.00,327.86" />
<polyline fill="none" stroke="#2563eb" stroke-width="3.00" points="110.00,231.56 117.04,232.11 124.09,232.66 131.13,233.22 138.18,233.77 145.22,234.32 152.26,234.87 159.31,235.42 166.35,235.98 173.40,236.53 180.44,237.08 187.48,237.63 194.53,238.18 201.57,238.73 208.62,239.28 215.66,239.83 222.70,240.37 229.75,240.92 236.79,241.47 243.84,242.02 250.88,242.57 257.92,243.11 264.97,243.66 272.01,244.21 279.06,244.75 286.10,245.30 293.14,245.85 300.19,246.39 307.23,246.94 314.28,247.48 321.32,248.02 328.36,248.57 335.41,249.11 342.45,249.66 349.50,250.20 356.54,250.74 363.58,251.28 370.63,251.83 377.67,252.37 384.72,252.91 391.76,253.45 398.81,253.99 405.85,254.53 412.89,255.07 419.94,255.61 426.98,256.15 434.03,256.69 441.07,257.22 448.11,257.76 455.16,258.30 462.20,258.84 469.25,259.37 476.29,259.91 483.33,260.45 490.38,260.98 497.42,261.52 504.47,262.05 511.51,262.59 518.55,263.12 525.60,263.65 532.64,264.19 539.69,264.72 546.73,265.25 553.77,265.78 560.82,266.31 567.86,266.85 574.91,267.38 581.95,267.91 588.99,268.44 596.04,268.96 603.08,269.49 610.13,270.02 617.17,270.55 624.21,271.08 631.26,271.60 638.30,272.13 645.35,272.65 652.39,273.18 659.43,273.71 666.48,274.23 673.52,274.75 680.57,275.28 687.61,275.80 694.65,276.32 701.70,276.84 708.74,277.36 715.79,277.89 722.83,278.41 729.87,278.93 736.92,279.44 743.96,279.96 751.01,280.48 758.05,281.00 765.09,281.52 772.14,282.03 779.18,282.55 786.23,283.06 793.27,283.58 800.31,284.09 807.36,284.61 814.40,285.12 821.45,285.63 828.49,286.14 835.53,286.65 842.58,287.16 849.62,287.67 856.67,288.18 863.71,288.69 870.75,289.20 877.80,289.71 884.84,290.21 891.89,290.72 898.93,291.22 905.97,291.73 913.02,292.23 920.06,292.74 927.11,293.24 934.15,293.74 941.19,294.24 948.24,294.74 955.28,295.24 962.33,295.74 969.37,296.24 976.42,296.74 983.46,297.23 990.50,297.73 997.55,298.22 1004.59,298.72 1011.64,299.21 1018.68,299.70 1025.72,300.19 1032.77,300.69 1039.81,301.18 1046.86,301.66 1053.90,302.15 1060.94,302.64 1067.99,303.13 1075.03,303.61 1082.08,304.10 1089.12,304.58 1096.16,305.07 1103.21,305.55 1110.25,306.03 1117.30,306.51 1124.34,306.99 1131.38,307.47 1138.43,307.94 1145.47,308.42 1152.52,308.90 1159.56,309.37 1166.60,309.84 1173.65,310.32 1180.69,310.79 1187.74,311.26 1194.78,311.73 1201.82,312.20 1208.87,312.66 1215.91,313.13 1222.96,313.59 1230.00,314.06" />
<polyline fill="none" stroke="#2563eb" stroke-width="3.00" points="110.00,650.70 117.04,650.74 124.09,650.78 131.13,650.82 138.18,650.86 145.22,650.90 152.26,650.94 159.31,650.98 166.35,651.02 173.40,651.06 180.44,651.10 187.48,651.14 194.53,651.18 201.57,651.22 208.62,651.26 215.66,651.30 222.70,651.34 229.75,651.38 236.79,651.42 243.84,651.46 250.88,651.50 257.92,651.54 264.97,651.58 272.01,651.62 279.06,651.66 286.10,651.70 293.14,651.74 300.19,651.78 307.23,651.83 314.28,651.87 321.32,651.91 328.36,651.95 335.41,651.99 342.45,652.03 349.50,652.07 356.54,652.11 363.58,652.16 370.63,652.20 377.67,652.24 384.72,652.28 391.76,652.32 398.81,652.37 405.85,652.41 412.89,652.45 419.94,652.49 426.98,652.53 434.03,652.58 441.07,652.62 448.11,652.66 455.16,652.70 462.20,652.75 469.25,652.79 476.29,652.83 483.33,652.87 490.38,652.92 497.42,652.96 504.47,653.00 511.51,653.04 518.55,653.09 525.60,653.13 532.64,653.17 539.69,653.22 546.73,653.26 553.77,653.30 560.82,653.35 567.86,653.39 574.91,653.43 581.95,653.48 588.99,653.52 596.04,653.56 603.08,653.61 610.13,653.65 617.17,653.70 624.21,653.74 631.26,653.78 638.30,653.83 645.35,653.87 652.39,653.91 659.43,653.96 666.48,654.00 673.52,654.05 680.57,654.09 687.61,654.14 694.65,654.18 701.70,654.22 708.74,654.27 715.79,654.31 722.83,654.36 729.87,654.40 736.92,654.45 743.96,654.49 751.01,654.54 758.05,654.58 765.09,654.62 772.14,654.67 779.18,654.71 786.23,654.76 793.27,654.80 800.31,654.85 807.36,654.89 814.40,654.94 821.45,654.98 828.49,655.03 835.53,655.07 842.58,655.12 849.62,655.16 856.67,655.21 863.71,655.25 870.75,655.30 877.80,655.34 884.84,655.39 891.89,655.44 898.93,655.48 905.97,655.53 913.02,655.57 920.06,655.62 927.11,655.66 934.15,655.71 941.19,655.75 948.24,655.80 955.28,655.84 962.33,655.89 969.37,655.94 976.42,655.98 983.46,656.03 990.50,656.07 997.55,656.12 1004.59,656.16 1011.64,656.21 1018.68,656.25 1025.72,656.30 1032.77,656.35 1039.81,656.39 1046.86,656.44 1053.90,656.48 1060.94,656.53 1067.99,656.57 1075.03,656.62 1082.08,656.67 1089.12,656.71 1096.16,656.76 1103.21,656.80 1110.25,656.85 1117.30,656.89 1124.34,656.94 1131.38,656.98 1138.43,657.03 1145.47,657.08 1152.52,657.12 1159.56,657.17 1166.60,657.21 1173.65,657.26 1180.69,657.30 1187.74,657.35 1194.78,657.39 1201.82,657.44 1208.87,657.48 1215.91,657.53 1222.96,657.57 1230.00,657.62" />
<polyline fill="none" stroke="#b91c1c" stroke-width="3.00" stroke-dasharray="10 7" points="110.00,264.38 117.04,264.70 124.09,265.02 131.13,265.33 138.18,265.65 145.22,265.97 152.26,266.28 159.31,266.60 166.35,266.92 173.40,267.24 180.44,267.55 187.48,267.87 194.53,268.19 201.57,268.50 208.62,268.82 215.66,269.14 222.70,269.45 229.75,269.77 236.79,270.09 243.84,270.41 250.88,270.72 257.92,271.04 264.97,271.36 272.01,271.67 279.06,271.99 286.10,272.31 293.14,272.62 300.19,272.94 307.23,273.26 314.28,273.57 321.32,273.89 328.36,274.21 335.41,274.53 342.45,274.84 349.50,275.16 356.54,275.48 363.58,275.79 370.63,276.11 377.67,276.43 384.72,276.74 391.76,277.06 398.81,277.38 405.85,277.69 412.89,278.01 419.94,278.33 426.98,278.65 434.03,278.96 441.07,279.28 448.11,279.60 455.16,279.91 462.20,280.23 469.25,280.55 476.29,280.86 483.33,281.18 490.38,281.50 497.42,281.81 504.47,282.13 511.51,282.45 518.55,282.77 525.60,283.08 532.64,283.40 539.69,283.72 546.73,284.03 553.77,284.35 560.82,284.67 567.86,284.98 574.91,285.30 581.95,285.62 588.99,285.94 596.04,286.25 603.08,286.57 610.13,286.89 617.17,287.20 624.21,287.52 631.26,287.84 638.30,288.15 645.35,288.47 652.39,288.79 659.43,289.10 666.48,289.42 673.52,289.74 680.57,290.06 687.61,290.37 694.65,290.69 701.70,291.01 708.74,291.32 715.79,291.64 722.83,291.96 729.87,292.27 736.92,292.59 743.96,292.91 751.01,293.22 758.05,293.54 765.09,293.86 772.14,294.18 779.18,294.49 786.23,294.81 793.27,295.13 800.31,295.44 807.36,295.76 814.40,296.08 821.45,296.39 828.49,296.71 835.53,297.03 842.58,297.34 849.62,297.66 856.67,297.98 863.71,298.30 870.75,298.61 877.80,298.93 884.84,299.25 891.89,299.56 898.93,299.88 905.97,300.20 913.02,300.51 920.06,300.83 927.11,301.15 934.15,301.47 941.19,301.78 948.24,302.10 955.28,302.42 962.33,302.73 969.37,303.05 976.42,303.37 983.46,303.68 990.50,304.00 997.55,304.32 1004.59,304.63 1011.64,304.95 1018.68,305.27 1025.72,305.59 1032.77,305.90 1039.81,306.22 1046.86,306.54 1053.90,306.85 1060.94,307.17 1067.99,307.49 1075.03,307.80 1082.08,308.12 1089.12,308.44 1096.16,308.75 1103.21,309.07 1110.25,309.39 1117.30,309.71 1124.34,310.02 1131.38,310.34 1138.43,310.66 1145.47,310.97 1152.52,311.29 1159.56,311.61 1166.60,311.92 1173.65,312.24 1180.69,312.56 1187.74,312.87 1194.78,313.19 1201.82,313.51 1208.87,313.83 1215.91,314.14 1222.96,314.46 1230.00,314.78" />
<polyline fill="none" stroke="#b91c1c" stroke-width="3.00" stroke-dasharray="10 7" points="110.00,697.62 117.04,697.53 124.09,697.44 131.13,697.35 138.18,697.25 145.22,697.16 152.26,697.07 159.31,696.97 166.35,696.87 173.40,696.78 180.44,696.68 187.48,696.58 194.53,696.48 201.57,696.38 208.62,696.28 215.66,696.18 222.70,696.08 229.75,695.97 236.79,695.87 243.84,695.76 250.88,695.66 257.92,695.55 264.97,695.44 272.01,695.34 279.06,695.23 286.10,695.11 293.14,695.00 300.19,694.89 307.23,694.78 314.28,694.66 321.32,694.55 328.36,694.43 335.41,694.31 342.45,694.19 349.50,694.07 356.54,693.95 363.58,693.83 370.63,693.71 377.67,693.58 384.72,693.46 391.76,693.33 398.81,693.20 405.85,693.07 412.89,692.94 419.94,692.81 426.98,692.68 434.03,692.54 441.07,692.41 448.11,692.27 455.16,692.13 462.20,691.99 469.25,691.85 476.29,691.71 483.33,691.57 490.38,691.42 497.42,691.28 504.47,691.13 511.51,690.98 518.55,690.83 525.60,690.68 532.64,690.53 539.69,690.37 546.73,690.21 553.77,690.06 560.82,689.90 567.86,689.73 574.91,689.57 581.95,689.41 588.99,689.24 596.04,689.07 603.08,688.90 610.13,688.73 617.17,688.56 624.21,688.38 631.26,688.20 638.30,688.02 645.35,687.84 652.39,687.66 659.43,687.47 666.48,687.29 673.52,687.10 680.57,686.90 687.61,686.71 694.65,686.51 701.70,686.32 708.74,686.12 715.79,685.91 722.83,685.71 729.87,685.50 736.92,685.29 743.96,685.08 751.01,684.87 758.05,684.65 765.09,684.43 772.14,684.21 779.18,683.98 786.23,683.76 793.27,683.53 800.31,683.29 807.36,683.06 814.40,682.82 821.45,682.58 828.49,682.33 835.53,682.08 842.58,681.83 849.62,681.58 856.67,681.32 863.71,681.06 870.75,680.80 877.80,680.53 884.84,680.26 891.89,679.99 898.93,679.71 905.97,679.43 913.02,679.14 920.06,678.86 927.11,678.56 934.15,678.27 941.19,677.97 948.24,677.66 955.28,677.35 962.33,677.04 969.37,676.72 976.42,676.40 983.46,676.08 990.50,675.75 997.55,675.41 1004.59,675.07 1011.64,674.72 1018.68,674.37 1025.72,674.02 1032.77,673.66 1039.81,673.29 1046.86,672.92 1053.90,672.54 1060.94,672.16 1067.99,671.77 1075.03,671.38 1082.08,670.98 1089.12,670.57 1096.16,670.16 1103.21,669.74 1110.25,669.31 1117.30,668.88 1124.34,668.44 1131.38,667.99 1138.43,667.54 1145.47,667.08 1152.52,666.61 1159.56,666.13 1166.60,665.64 1173.65,665.15 1180.69,664.65 1187.74,664.14 1194.78,663.62 1201.82,663.09 1208.87,662.55 1215.91,662.00 1222.96,661.44 1230.00,660.88" />
<polyline fill="none" stroke="#60a5fa" stroke-width="3.00" points="110.00,182.49 117.04,183.27 124.09,184.05 131.13,184.83 138.18,185.62 145.22,186.40 152.26,187.18 159.31,187.96 166.35,188.74 173.40,189.52 180.44,190.29 187.48,191.07 194.53,191.85 201.57,192.63 208.62,193.40 215.66,194.18 222.70,194.96 229.75,195.73 236.79,196.51 243.84,197.28 250.88,198.06 257.92,198.83 264.97,199.61 272.01,200.38 279.06,201.15 286.10,201.92 293.14,202.70 300.19,203.47 307.23,204.24 314.28,205.01 321.32,205.78 328.36,206.55 335.41,207.32 342.45,208.08 349.50,208.85 356.54,209.62 363.58,210.39 370.63,211.15 377.67,211.92 384.72,212.68 391.76,213.45 398.81,214.21 405.85,214.98 412.89,215.74 419.94,216.50 426.98,217.27 434.03,218.03 441.07,218.79 448.11,219.55 455.16,220.31 462.20,221.07 469.25,221.83 476.29,222.59 483.33,223.35 490.38,224.10 497.42,224.86 504.47,225.62 511.51,226.37 518.55,227.13 525.60,227.88 532.64,228.63 539.69,229.39 546.73,230.14 553.77,230.89 560.82,231.64 567.86,232.40 574.91,233.15 581.95,233.89 588.99,234.64 596.04,235.39 603.08,236.14 610.13,236.89 617.17,237.63 624.21,238.38 631.26,239.12 638.30,239.87 645.35,240.61 652.39,241.35 659.43,242.10 666.48,242.84 673.52,243.58 680.57,244.32 687.61,245.06 694.65,245.80 701.70,246.54 708.74,247.27 715.79,248.01 722.83,248.75 729.87,249.48 736.92,250.21 743.96,250.95 751.01,251.68 758.05,252.41 765.09,253.14 772.14,253.87 779.18,254.60 786.23,255.33 793.27,256.06 800.31,256.79 807.36,257.51 814.40,258.24 821.45,258.96 828.49,259.69 835.53,260.41 842.58,261.13 849.62,261.85 856.67,262.57 863.71,263.29 870.75,264.01 877.80,264.73 884.84,265.44 891.89,266.16 898.93,266.87 905.97,267.59 913.02,268.30 920.06,269.01 927.11,269.72 934.15,270.43 941.19,271.14 948.24,271.85 955.28,272.55 962.33,273.26 969.37,273.96 976.42,274.67 983.46,275.37 990.50,276.07 997.55,276.77 1004.59,277.47 1011.64,278.17 1018.68,278.87 1025.72,279.56 1032.77,280.26 1039.81,280.95 1046.86,281.64 1053.90,282.33 1060.94,283.02 1067.99,283.71 1075.03,284.40 1082.08,285.08 1089.12,285.77 1096.16,286.45 1103.21,287.13 1110.25,287.81 1117.30,288.49 1124.34,289.17 1131.38,289.85 1138.43,290.52 1145.47,291.20 1152.52,291.87 1159.56,292.54 1166.60,293.21 1173.65,293.88 1180.69,294.54 1187.74,295.21 1194.78,295.87 1201.82,296.53 1208.87,297.19 1215.91,297.85 1222.96,298.51 1230.00,299.16" />
<polyline fill="none" stroke="#60a5fa" stroke-width="3.00" points="110.00,580.56 117.04,580.62 124.09,580.67 131.13,580.73 138.18,580.78 145.22,580.84 152.26,580.90 159.31,580.95 166.35,581.01 173.40,581.07 180.44,581.12 187.48,581.18 194.53,581.23 201.57,581.29 208.62,581.35 215.66,581.40 222.70,581.46 229.75,581.52 236.79,581.58 243.84,581.63 250.88,581.69 257.92,581.75 264.97,581.81 272.01,581.86 279.06,581.92 286.10,581.98 293.14,582.04 300.19,582.09 307.23,582.15 314.28,582.21 321.32,582.27 328.36,582.33 335.41,582.39 342.45,582.45 349.50,582.50 356.54,582.56 363.58,582.62 370.63,582.68 377.67,582.74 384.72,582.80 391.76,582.86 398.81,582.92 405.85,582.98 412.89,583.04 419.94,583.10 426.98,583.16 434.03,583.21 441.07,583.27 448.11,583.33 455.16,583.39 462.20,583.45 469.25,583.51 476.29,583.58 483.33,583.64 490.38,583.70 497.42,583.76 504.47,583.82 511.51,583.88 518.55,583.94 525.60,584.00 532.64,584.06 539.69,584.12 546.73,584.18 553.77,584.24 560.82,584.30 567.86,584.37 574.91,584.43 581.95,584.49 588.99,584.55 596.04,584.61 603.08,584.67 610.13,584.74 617.17,584.80 624.21,584.86 631.26,584.92 638.30,584.98 645.35,585.05 652.39,585.11 659.43,585.17 666.48,585.23 673.52,585.29 680.57,585.36 687.61,585.42 694.65,585.48 701.70,585.54 708.74,585.61 715.79,585.67 722.83,585.73 729.87,585.80 736.92,585.86 743.96,585.92 751.01,585.99 758.05,586.05 765.09,586.11 772.14,586.18 779.18,586.24 786.23,586.30 793.27,586.37 800.31,586.43 807.36,586.49 814.40,586.56 821.45,586.62 828.49,586.68 835.53,586.75 842.58,586.81 849.62,586.87 856.67,586.94 863.71,587.00 870.75,587.07 877.80,587.13 884.84,587.19 891.89,587.26 898.93,587.32 905.97,587.39 913.02,587.45 920.06,587.52 927.11,587.58 934.15,587.64 941.19,587.71 948.24,587.77 955.28,587.84 962.33,587.90 969.37,587.97 976.42,588.03 983.46,588.09 990.50,588.16 997.55,588.22 1004.59,588.29 1011.64,588.35 1018.68,588.42 1025.72,588.48 1032.77,588.55 1039.81,588.61 1046.86,588.68 1053.90,588.74 1060.94,588.80 1067.99,588.87 1075.03,588.93 1082.08,589.00 1089.12,589.06 1096.16,589.13 1103.21,589.19 1110.25,589.26 1117.30,589.32 1124.34,589.38 1131.38,589.45 1138.43,589.51 1145.47,589.58 1152.52,589.64 1159.56,589.71 1166.60,589.77 1173.65,589.84 1180.69,589.90 1187.74,589.96 1194.78,590.03 1201.82,590.09 1208.87,590.16 1215.91,590.22 1222.96,590.28 1230.00,590.35" />
<polyline fill="none" stroke="#ef4444" stroke-width="3.00" stroke-dasharray="10 7" points="110.00,228.91 117.04,229.36 124.09,229.81 131.13,230.26 138.18,230.71 145.22,231.15 152.26,231.60 159.31,232.05 166.35,232.50 173.40,232.95 180.44,233.40 187.48,233.84 194.53,234.29 201.57,234.74 208.62,235.19 215.66,235.64 222.70,236.09 229.75,236.53 236.79,236.98 243.84,237.43 250.88,237.88 257.92,238.33 264.97,238.77 272.01,239.22 279.06,239.67 286.10,240.12 293.14,240.57 300.19,241.02 307.23,241.46 314.28,241.91 321.32,242.36 328.36,242.81 335.41,243.26 342.45,243.71 349.50,244.15 356.54,244.60 363.58,245.05 370.63,245.50 377.67,245.95 384.72,246.40 391.76,246.84 398.81,247.29 405.85,247.74 412.89,248.19 419.94,248.64 426.98,249.08 434.03,249.53 441.07,249.98 448.11,250.43 455.16,250.88 462.20,251.33 469.25,251.77 476.29,252.22 483.33,252.67 490.38,253.12 497.42,253.57 504.47,254.02 511.51,254.46 518.55,254.91 525.60,255.36 532.64,255.81 539.69,256.26 546.73,256.70 553.77,257.15 560.82,257.60 567.86,258.05 574.91,258.50 581.95,258.95 588.99,259.39 596.04,259.84 603.08,260.29 610.13,260.74 617.17,261.19 624.21,261.64 631.26,262.08 638.30,262.53 645.35,262.98 652.39,263.43 659.43,263.88 666.48,264.32 673.52,264.77 680.57,265.22 687.61,265.67 694.65,266.12 701.70,266.57 708.74,267.01 715.79,267.46 722.83,267.91 729.87,268.36 736.92,268.81 743.96,269.26 751.01,269.70 758.05,270.15 765.09,270.60 772.14,271.05 779.18,271.50 786.23,271.94 793.27,272.39 800.31,272.84 807.36,273.29 814.40,273.74 821.45,274.19 828.49,274.63 835.53,275.08 842.58,275.53 849.62,275.98 856.67,276.43 863.71,276.88 870.75,277.32 877.80,277.77 884.84,278.22 891.89,278.67 898.93,279.12 905.97,279.56 913.02,280.01 920.06,280.46 927.11,280.91 934.15,281.36 941.19,281.81 948.24,282.25 955.28,282.70 962.33,283.15 969.37,283.60 976.42,284.05 983.46,284.50 990.50,284.94 997.55,285.39 1004.59,285.84 1011.64,286.29 1018.68,286.74 1025.72,287.19 1032.77,287.63 1039.81,288.08 1046.86,288.53 1053.90,288.98 1060.94,289.43 1067.99,289.87 1075.03,290.32 1082.08,290.77 1089.12,291.22 1096.16,291.67 1103.21,292.12 1110.25,292.56 1117.30,293.01 1124.34,293.46 1131.38,293.91 1138.43,294.36 1145.47,294.81 1152.52,295.25 1159.56,295.70 1166.60,296.15 1173.65,296.60 1180.69,297.05 1187.74,297.49 1194.78,297.94 1201.82,298.39 1208.87,298.84 1215.91,299.29 1222.96,299.74 1230.00,300.18" />
<polyline fill="none" stroke="#ef4444" stroke-width="3.00" stroke-dasharray="10 7" points="110.00,646.92 117.04,646.79 124.09,646.66 131.13,646.53 138.18,646.40 145.22,646.27 152.26,646.14 159.31,646.00 166.35,645.87 173.40,645.73 180.44,645.59 187.48,645.45 194.53,645.31 201.57,645.17 208.62,645.03 215.66,644.88 222.70,644.74 229.75,644.59 236.79,644.44 243.84,644.30 250.88,644.15 257.92,643.99 264.97,643.84 272.01,643.69 279.06,643.53 286.10,643.38 293.14,643.22 300.19,643.06 307.23,642.90 314.28,642.74 321.32,642.57 328.36,642.41 335.41,642.24 342.45,642.07 349.50,641.90 356.54,641.73 363.58,641.56 370.63,641.38 377.67,641.21 384.72,641.03 391.76,640.85 398.81,640.67 405.85,640.49 412.89,640.30 419.94,640.12 426.98,639.93 434.03,639.74 441.07,639.55 448.11,639.36 455.16,639.16 462.20,638.96 469.25,638.77 476.29,638.56 483.33,638.36 490.38,638.16 497.42,637.95 504.47,637.74 511.51,637.53 518.55,637.32 525.60,637.10 532.64,636.89 539.69,636.67 546.73,636.45 553.77,636.22 560.82,636.00 567.86,635.77 574.91,635.54 581.95,635.30 588.99,635.07 596.04,634.83 603.08,634.59 610.13,634.35 617.17,634.10 624.21,633.85 631.26,633.60 638.30,633.35 645.35,633.09 652.39,632.83 659.43,632.57 666.48,632.30 673.52,632.04 680.57,631.76 687.61,631.49 694.65,631.21 701.70,630.93 708.74,630.65 715.79,630.36 722.83,630.07 729.87,629.78 736.92,629.49 743.96,629.19 751.01,628.88 758.05,628.58 765.09,628.27 772.14,627.95 779.18,627.63 786.23,627.31 793.27,626.99 800.31,626.66 807.36,626.32 814.40,625.99 821.45,625.64 828.49,625.30 835.53,624.95 842.58,624.59 849.62,624.23 856.67,623.87 863.71,623.50 870.75,623.13 877.80,622.75 884.84,622.37 891.89,621.98 898.93,621.59 905.97,621.19 913.02,620.79 920.06,620.38 927.11,619.97 934.15,619.55 941.19,619.12 948.24,618.69 955.28,618.26 962.33,617.82 969.37,617.37 976.42,616.91 983.46,616.45 990.50,615.98 997.55,615.51 1004.59,615.03 1011.64,614.54 1018.68,614.04 1025.72,613.54 1032.77,613.03 1039.81,612.51 1046.86,611.99 1053.90,611.46 1060.94,610.91 1067.99,610.36 1075.03,609.81 1082.08,609.24 1089.12,608.67 1096.16,608.08 1103.21,607.49 1110.25,606.89 1117.30,606.27 1124.34,605.65 1131.38,605.02 1138.43,604.38 1145.47,603.72 1152.52,603.06 1159.56,602.38 1166.60,601.70 1173.65,601.00 1180.69,600.29 1187.74,599.56 1194.78,598.83 1201.82,598.08 1208.87,597.32 1215.91,596.55 1222.96,595.76 1230.00,594.95" />
<polyline fill="none" stroke="#93c5fd" stroke-width="3.00" points="110.00,115.48 117.04,116.58 124.09,117.67 131.13,118.77 138.18,119.86 145.22,120.96 152.26,122.05 159.31,123.14 166.35,124.23 173.40,125.32 180.44,126.41 187.48,127.50 194.53,128.59 201.57,129.68 208.62,130.77 215.66,131.85 222.70,132.94 229.75,134.03 236.79,135.11 243.84,136.20 250.88,137.28 257.92,138.36 264.97,139.45 272.01,140.53 279.06,141.61 286.10,142.69 293.14,143.77 300.19,144.85 307.23,145.93 314.28,147.01 321.32,148.09 328.36,149.17 335.41,150.24 342.45,151.32 349.50,152.39 356.54,153.47 363.58,154.54 370.63,155.61 377.67,156.69 384.72,157.76 391.76,158.83 398.81,159.90 405.85,160.97 412.89,162.04 419.94,163.11 426.98,164.17 434.03,165.24 441.07,166.31 448.11,167.37 455.16,168.43 462.20,169.50 469.25,170.56 476.29,171.62 483.33,172.68 490.38,173.74 497.42,174.80 504.47,175.86 511.51,176.92 518.55,177.98 525.60,179.03 532.64,180.09 539.69,181.14 546.73,182.20 553.77,183.25 560.82,184.30 567.86,185.35 574.91,186.40 581.95,187.45 588.99,188.50 596.04,189.55 603.08,190.60 610.13,191.64 617.17,192.69 624.21,193.73 631.26,194.77 638.30,195.82 645.35,196.86 652.39,197.90 659.43,198.94 666.48,199.97 673.52,201.01 680.57,202.05 687.61,203.08 694.65,204.12 701.70,205.15 708.74,206.18 715.79,207.21 722.83,208.24 729.87,209.27 736.92,210.30 743.96,211.33 751.01,212.35 758.05,213.38 765.09,214.40 772.14,215.42 779.18,216.45 786.23,217.47 793.27,218.48 800.31,219.50 807.36,220.52 814.40,221.53 821.45,222.55 828.49,223.56 835.53,224.57 842.58,225.58 849.62,226.59 856.67,227.60 863.71,228.61 870.75,229.61 877.80,230.62 884.84,231.62 891.89,232.62 898.93,233.62 905.97,234.62 913.02,235.62 920.06,236.62 927.11,237.61 934.15,238.60 941.19,239.60 948.24,240.59 955.28,241.58 962.33,242.56 969.37,243.55 976.42,244.54 983.46,245.52 990.50,246.50 997.55,247.48 1004.59,248.46 1011.64,249.44 1018.68,250.41 1025.72,251.39 1032.77,252.36 1039.81,253.33 1046.86,254.30 1053.90,255.26 1060.94,256.23 1067.99,257.19 1075.03,258.15 1082.08,259.12 1089.12,260.07 1096.16,261.03 1103.21,261.98 1110.25,262.94 1117.30,263.89 1124.34,264.84 1131.38,265.79 1138.43,266.73 1145.47,267.67 1152.52,268.61 1159.56,269.55 1166.60,270.49 1173.65,271.43 1180.69,272.36 1187.74,273.29 1194.78,274.22 1201.82,275.15 1208.87,276.07 1215.91,276.99 1222.96,277.91 1230.00,278.83" />
<polyline fill="none" stroke="#93c5fd" stroke-width="3.00" points="110.00,484.79 117.04,484.86 124.09,484.94 131.13,485.02 138.18,485.10 145.22,485.18 152.26,485.26 159.31,485.33 166.35,485.41 173.40,485.49 180.44,485.57 187.48,485.65 194.53,485.73 201.57,485.81 208.62,485.89 215.66,485.97 222.70,486.05 229.75,486.13 236.79,486.21 243.84,486.29 250.88,486.37 257.92,486.45 264.97,486.53 272.01,486.61 279.06,486.69 286.10,486.77 293.14,486.85 300.19,486.93 307.23,487.01 314.28,487.10 321.32,487.18 328.36,487.26 335.41,487.34 342.45,487.42 349.50,487.51 356.54,487.59 363.58,487.67 370.63,487.75 377.67,487.83 384.72,487.92 391.76,488.00 398.81,488.08 405.85,488.17 412.89,488.25 419.94,488.33 426.98,488.42 434.03,488.50 441.07,488.58 448.11,488.67 455.16,488.75 462.20,488.84 469.25,488.92 476.29,489.01 483.33,489.09 490.38,489.17 497.42,489.26 504.47,489.34 511.51,489.43 518.55,489.51 525.60,489.60 532.64,489.68 539.69,489.77 546.73,489.86 553.77,489.94 560.82,490.03 567.86,490.11 574.91,490.20 581.95,490.28 588.99,490.37 596.04,490.46 603.08,490.54 610.13,490.63 617.17,490.72 624.21,490.80 631.26,490.89 638.30,490.98 645.35,491.06 652.39,491.15 659.43,491.24 666.48,491.33 673.52,491.41 680.57,491.50 687.61,491.59 694.65,491.68 701.70,491.76 708.74,491.85 715.79,491.94 722.83,492.03 729.87,492.11 736.92,492.20 743.96,492.29 751.01,492.38 758.05,492.47 765.09,492.56 772.14,492.65 779.18,492.73 786.23,492.82 793.27,492.91 800.31,493.00 807.36,493.09 814.40,493.18 821.45,493.27 828.49,493.36 835.53,493.45 842.58,493.54 849.62,493.62 856.67,493.71 863.71,493.80 870.75,493.89 877.80,493.98 884.84,494.07 891.89,494.16 898.93,494.25 905.97,494.34 913.02,494.43 920.06,494.52 927.11,494.61 934.15,494.70 941.19,494.79 948.24,494.88 955.28,494.97 962.33,495.06 969.37,495.15 976.42,495.24 983.46,495.33 990.50,495.42 997.55,495.51 1004.59,495.60 1011.64,495.69 1018.68,495.78 1025.72,495.87 1032.77,495.96 1039.81,496.05 1046.86,496.15 1053.90,496.24 1060.94,496.33 1067.99,496.42 1075.03,496.51 1082.08,496.60 1089.12,496.69 1096.16,496.78 1103.21,496.87 1110.25,496.96 1117.30,497.05 1124.34,497.14 1131.38,497.23 1138.43,497.32 1145.47,497.41 1152.52,497.50 1159.56,497.59 1166.60,497.68 1173.65,497.77 1180.69,497.86 1187.74,497.95 1194.78,498.04 1201.82,498.13 1208.87,498.22 1215.91,498.31 1222.96,498.40 1230.00,498.49" />
<polyline fill="none" stroke="#fca5a5" stroke-width="3.00" stroke-dasharray="10 7" points="110.00,180.48 117.04,181.11 124.09,181.73 131.13,182.36 138.18,182.99 145.22,183.62 152.26,184.24 159.31,184.87 166.35,185.50 173.40,186.13 180.44,186.75 187.48,187.38 194.53,188.01 201.57,188.64 208.62,189.26 215.66,189.89 222.70,190.52 229.75,191.15 236.79,191.77 243.84,192.40 250.88,193.03 257.92,193.66 264.97,194.28 272.01,194.91 279.06,195.54 286.10,196.17 293.14,196.80 300.19,197.42 307.23,198.05 314.28,198.68 321.32,199.31 328.36,199.93 335.41,200.56 342.45,201.19 349.50,201.82 356.54,202.44 363.58,203.07 370.63,203.70 377.67,204.33 384.72,204.95 391.76,205.58 398.81,206.21 405.85,206.84 412.89,207.46 419.94,208.09 426.98,208.72 434.03,209.35 441.07,209.97 448.11,210.60 455.16,211.23 462.20,211.86 469.25,212.48 476.29,213.11 483.33,213.74 490.38,214.37 497.42,214.99 504.47,215.62 511.51,216.25 518.55,216.88 525.60,217.50 532.64,218.13 539.69,218.76 546.73,219.39 553.77,220.01 560.82,220.64 567.86,221.27 574.91,221.90 581.95,222.52 588.99,223.15 596.04,223.78 603.08,224.41 610.13,225.03 617.17,225.66 624.21,226.29 631.26,226.92 638.30,227.54 645.35,228.17 652.39,228.80 659.43,229.43 666.48,230.05 673.52,230.68 680.57,231.31 687.61,231.94 694.65,232.56 701.70,233.19 708.74,233.82 715.79,234.45 722.83,235.07 729.87,235.70 736.92,236.33 743.96,236.96 751.01,237.59 758.05,238.21 765.09,238.84 772.14,239.47 779.18,240.10 786.23,240.72 793.27,241.35 800.31,241.98 807.36,242.61 814.40,243.23 821.45,243.86 828.49,244.49 835.53,245.12 842.58,245.74 849.62,246.37 856.67,247.00 863.71,247.63 870.75,248.25 877.80,248.88 884.84,249.51 891.89,250.14 898.93,250.76 905.97,251.39 913.02,252.02 920.06,252.65 927.11,253.27 934.15,253.90 941.19,254.53 948.24,255.16 955.28,255.78 962.33,256.41 969.37,257.04 976.42,257.67 983.46,258.29 990.50,258.92 997.55,259.55 1004.59,260.18 1011.64,260.80 1018.68,261.43 1025.72,262.06 1032.77,262.69 1039.81,263.31 1046.86,263.94 1053.90,264.57 1060.94,265.20 1067.99,265.82 1075.03,266.45 1082.08,267.08 1089.12,267.71 1096.16,268.33 1103.21,268.96 1110.25,269.59 1117.30,270.22 1124.34,270.84 1131.38,271.47 1138.43,272.10 1145.47,272.73 1152.52,273.35 1159.56,273.98 1166.60,274.61 1173.65,275.24 1180.69,275.86 1187.74,276.49 1194.78,277.12 1201.82,277.75 1208.87,278.38 1215.91,279.00 1222.96,279.63 1230.00,280.26" />
<polyline fill="none" stroke="#fca5a5" stroke-width="3.00" stroke-dasharray="10 7" points="110.00,577.69 117.04,577.51 124.09,577.33 131.13,577.15 138.18,576.96 145.22,576.78 152.26,576.59 159.31,576.40 166.35,576.21 173.40,576.02 180.44,575.83 187.48,575.63 194.53,575.44 201.57,575.24 208.62,575.04 215.66,574.84 222.70,574.63 229.75,574.43 236.79,574.22 243.84,574.01 250.88,573.80 257.92,573.59 264.97,573.38 272.01,573.16 279.06,572.95 286.10,572.73 293.14,572.51 300.19,572.28 307.23,572.06 314.28,571.83 321.32,571.60 328.36,571.37 335.41,571.14 342.45,570.90 349.50,570.66 356.54,570.42 363.58,570.18 370.63,569.94 377.67,569.69 384.72,569.44 391.76,569.19 398.81,568.94 405.85,568.68 412.89,568.43 419.94,568.17 426.98,567.90 434.03,567.64 441.07,567.37 448.11,567.10 455.16,566.83 462.20,566.55 469.25,566.27 476.29,565.99 483.33,565.71 490.38,565.42 497.42,565.13 504.47,564.84 511.51,564.54 518.55,564.25 525.60,563.94 532.64,563.64 539.69,563.33 546.73,563.02 553.77,562.71 560.82,562.39 567.86,562.07 574.91,561.75 581.95,561.42 588.99,561.09 596.04,560.76 603.08,560.42 610.13,560.08 617.17,559.74 624.21,559.39 631.26,559.04 638.30,558.68 645.35,558.33 652.39,557.96 659.43,557.60 666.48,557.22 673.52,556.85 680.57,556.47 687.61,556.09 694.65,555.70 701.70,555.31 708.74,554.91 715.79,554.51 722.83,554.10 729.87,553.69 736.92,553.28 743.96,552.86 751.01,552.44 758.05,552.01 765.09,551.57 772.14,551.13 779.18,550.69 786.23,550.24 793.27,549.78 800.31,549.32 807.36,548.85 814.40,548.38 821.45,547.90 828.49,547.42 835.53,546.93 842.58,546.43 849.62,545.93 856.67,545.42 863.71,544.90 870.75,544.38 877.80,543.85 884.84,543.32 891.89,542.78 898.93,542.23 905.97,541.67 913.02,541.11 920.06,540.54 927.11,539.96 934.15,539.37 941.19,538.77 948.24,538.17 955.28,537.56 962.33,536.94 969.37,536.31 976.42,535.68 983.46,535.03 990.50,534.38 997.55,533.71 1004.59,533.04 1011.64,532.35 1018.68,531.66 1025.72,530.96 1032.77,530.24 1039.81,529.52 1046.86,528.78 1053.90,528.04 1060.94,527.28 1067.99,526.51 1075.03,525.73 1082.08,524.94 1089.12,524.13 1096.16,523.31 1103.21,522.48 1110.25,521.64 1117.30,520.78 1124.34,519.91 1131.38,519.03 1138.43,518.13 1145.47,517.21 1152.52,516.28 1159.56,515.34 1166.60,514.37 1173.65,513.40 1180.69,512.40 1187.74,511.39 1194.78,510.36 1201.82,509.31 1208.87,508.25 1215.91,507.16 1222.96,506.06 1230.00,504.93" />
<rect x="742.00" y="74.00" width="425.00" height="128.00" fill="#ffffff" stroke="#d1d5db" stroke-width="1.20" rx="4" ry="4" />
<line x1="760.00" y1="108.00" x2="804.00" y2="108.00" stroke="#111827" stroke-width="3.00" />
<text x="816.00" y="113.00" font-family="Helvetica, Arial, sans-serif" font-size="13" text-anchor="start" font-weight="400" fill="#111827">Lower bound</text>
<line x1="760.00" y1="126.00" x2="804.00" y2="126.00" stroke="#2563eb" stroke-width="3.00" />
<text x="816.00" y="131.00" font-family="Helvetica, Arial, sans-serif" font-size="13" text-anchor="start" font-weight="400" fill="#111827">Homodyne, η = 0.99</text>
<line x1="760.00" y1="144.00" x2="804.00" y2="144.00" stroke="#60a5fa" stroke-width="3.00" />
<text x="816.00" y="149.00" font-family="Helvetica, Arial, sans-serif" font-size="13" text-anchor="start" font-weight="400" fill="#111827">Homodyne, η = 0.70</text>
<line x1="760.00" y1="162.00" x2="804.00" y2="162.00" stroke="#93c5fd" stroke-width="3.00" />
<text x="816.00" y="167.00" font-family="Helvetica, Arial, sans-serif" font-size="13" text-anchor="start" font-weight="400" fill="#111827">Homodyne, η = 0.50</text>
<line x1="760.00" y1="180.00" x2="804.00" y2="180.00" stroke="#b91c1c" stroke-width="3.00" stroke-dasharray="10 7" />
<text x="816.00" y="185.00" font-family="Helvetica, Arial, sans-serif" font-size="13" text-anchor="start" font-weight="400" fill="#111827">Displaced on-off, η = 0.99</text>
<line x1="760.00" y1="198.00" x2="804.00" y2="198.00" stroke="#ef4444" stroke-width="3.00" stroke-dasharray="10 7" />
<text x="816.00" y="203.00" font-family="Helvetica, Arial, sans-serif" font-size="13" text-anchor="start" font-weight="400" fill="#111827">Displaced on-off, η = 0.70</text>
<line x1="760.00" y1="216.00" x2="804.00" y2="216.00" stroke="#fca5a5" stroke-width="3.00" stroke-dasharray="10 7" />
<text x="816.00" y="221.00" font-family="Helvetica, Arial, sans-serif" font-size="13" text-anchor="start" font-weight="400" fill="#111827">Displaced on-off, η = 0.50</text>
<rect x="780.00" y="446.00" width="370.00" height="92.00" fill="#f9fafb" stroke="#d1d5db" stroke-width="1.00" rx="4" ry="4" />
<text x="800.00" y="480.00" font-family="Helvetica, Arial, sans-serif" font-size="15" text-anchor="start" font-weight="600" fill="#111827">Observed design law in this model:</text>
<text x="800.00" y="502.00" font-family="Helvetica, Arial, sans-serif" font-size="14" text-anchor="start" font-weight="400" fill="#111827">Detector efficiency moves both routes together</text>
<text x="800.00" y="522.00" font-family="Helvetica, Arial, sans-serif" font-size="14" text-anchor="start" font-weight="400" fill="#111827">through the global 1/η penalty, while the</text>
<text x="800.00" y="542.00" font-family="Helvetica, Arial, sans-serif" font-size="14" text-anchor="start" font-weight="400" fill="#111827">measurement architecture sets the prefactor.</text>
<text x="110.00" y="836.00" font-family="Helvetica, Arial, sans-serif" font-size="13" text-anchor="start" font-weight="400" fill="#111827">Curves computed from the saved analytical models in same_axis_metrics.py; dashed lines denote displaced on-off routes.</text>
</svg>