<svg xmlns="http://www.w3.org/2000/svg" width="1320" height="920" viewBox="0 0 1320 920">
<rect width="100%" height="100%" fill="#ffffff" />
<text x="110.00" y="46.00" font-family="Helvetica, Arial, sans-serif" font-size="26" text-anchor="start" font-weight="700" fill="#111827">Figure 3 candidate | Boundary-cost design law for measurement-induced activation</text>
<text x="110.00" y="76.00" font-family="Helvetica, Arial, sans-serif" font-size="16" text-anchor="start" font-weight="400" fill="#111827">Coherent-boundary discrimination benchmark with the proved lower bound and two concrete measurement routes</text>
<text x="110.00" y="100.00" font-family="Helvetica, Arial, sans-serif" font-size="15" text-anchor="start" font-weight="400" fill="#111827">Solid blue: homodyne-conditioned route. Dashed red: displaced on-off route. Color intensity denotes detector efficiency.</text>
<text x="55.00" y="132.00" font-family="Helvetica, Arial, sans-serif" font-size="24" text-anchor="start" font-weight="700" fill="#111827">a</text>
<text x="55.00" y="512.00" font-family="Helvetica, Arial, sans-serif" font-size="24" text-anchor="start" font-weight="700" fill="#111827">b</text>
<rect x="110.00" y="750.00" width="1150.00" height="40.00" fill="#ecfdf5" stroke="none" stroke-width="0.00" rx="4" ry="4" />
<text x="1252.00" y="768.00" font-family="Helvetica, Arial, sans-serif" font-size="13" text-anchor="end" font-weight="600" fill="#111827">Near-frontier</text>
<rect x="110.00" y="690.00" width="1150.00" height="60.00" fill="#fffbeb" stroke="none" stroke-width="0.00" rx="4" ry="4" />
<text x="1252.00" y="708.00" font-family="Helvetica, Arial, sans-serif" font-size="13" text-anchor="end" font-weight="600" fill="#111827">Moderate overhead</text>
<rect x="110.00" y="530.00" width="1150.00" height="160.00" fill="#fef2f2" stroke="none" stroke-width="0.00" rx="4" ry="4" />
<text x="1252.00" y="548.00" font-family="Helvetica, Arial, sans-serif" font-size="13" text-anchor="end" font-weight="600" fill="#111827">Detector-limited</text>
<line x1="110.00" y1="410.00" x2="1260.00" y2="410.00" stroke="#e5e7eb" stroke-width="1.00" />
<text x="96.00" y="415.00" font-family="Helvetica, Arial, sans-serif" font-size="14" text-anchor="end" font-weight="400" fill="#111827">0.0</text>
<line x1="110.00" y1="323.33" x2="1260.00" y2="323.33" stroke="#e5e7eb" stroke-width="1.00" />
<text x="96.00" y="328.33" font-family="Helvetica, Arial, sans-serif" font-size="14" text-anchor="end" font-weight="400" fill="#111827">1.0</text>
<line x1="110.00" y1="236.67" x2="1260.00" y2="236.67" stroke="#e5e7eb" stroke-width="1.00" />
<text x="96.00" y="241.67" font-family="Helvetica, Arial, sans-serif" font-size="14" text-anchor="end" font-weight="400" fill="#111827">2.0</text>
<line x1="110.00" y1="150.00" x2="1260.00" y2="150.00" stroke="#e5e7eb" stroke-width="1.00" />
<text x="96.00" y="155.00" font-family="Helvetica, Arial, sans-serif" font-size="14" text-anchor="end" font-weight="400" fill="#111827">3.0</text>
<line x1="110.00" y1="790.00" x2="1260.00" y2="790.00" stroke="#e5e7eb" stroke-width="1.00" />
<text x="96.00" y="795.00" font-family="Helvetica, Arial, sans-serif" font-size="14" text-anchor="end" font-weight="400" fill="#111827">1.0</text>
<line x1="110.00" y1="740.00" x2="1260.00" y2="740.00" stroke="#e5e7eb" stroke-width="1.00" />
<text x="96.00" y="745.00" font-family="Helvetica, Arial, sans-serif" font-size="14" text-anchor="end" font-weight="400" fill="#111827">1.5</text>
<line x1="110.00" y1="690.00" x2="1260.00" y2="690.00" stroke="#e5e7eb" stroke-width="1.00" />
<text x="96.00" y="695.00" font-family="Helvetica, Arial, sans-serif" font-size="14" text-anchor="end" font-weight="400" fill="#111827">2.0</text>
<line x1="110.00" y1="640.00" x2="1260.00" y2="640.00" stroke="#e5e7eb" stroke-width="1.00" />
<text x="96.00" y="645.00" font-family="Helvetica, Arial, sans-serif" font-size="14" text-anchor="end" font-weight="400" fill="#111827">2.5</text>
<line x1="110.00" y1="590.00" x2="1260.00" y2="590.00" stroke="#e5e7eb" stroke-width="1.00" />
<text x="96.00" y="595.00" font-family="Helvetica, Arial, sans-serif" font-size="14" text-anchor="end" font-weight="400" fill="#111827">3.0</text>
<line x1="110.00" y1="540.00" x2="1260.00" y2="540.00" stroke="#e5e7eb" stroke-width="1.00" />
<text x="96.00" y="545.00" font-family="Helvetica, Arial, sans-serif" font-size="14" text-anchor="end" font-weight="400" fill="#111827">3.5</text>
<line x1="110.00" y1="150.00" x2="110.00" y2="410.00" stroke="#e5e7eb" stroke-width="1.00" />
<line x1="110.00" y1="530.00" x2="110.00" y2="790.00" stroke="#e5e7eb" stroke-width="1.00" />
<text x="110.00" y="438.00" font-family="Helvetica, Arial, sans-serif" font-size="14" text-anchor="middle" font-weight="400" fill="#111827">0.01</text>
<text x="110.00" y="818.00" font-family="Helvetica, Arial, sans-serif" font-size="14" text-anchor="middle" font-weight="400" fill="#111827">0.01</text>
<line x1="456.18" y1="150.00" x2="456.18" y2="410.00" stroke="#e5e7eb" stroke-width="1.00" />
<line x1="456.18" y1="530.00" x2="456.18" y2="790.00" stroke="#e5e7eb" stroke-width="1.00" />
<text x="456.18" y="438.00" font-family="Helvetica, Arial, sans-serif" font-size="14" text-anchor="middle" font-weight="400" fill="#111827">0.02</text>
<text x="456.18" y="818.00" font-family="Helvetica, Arial, sans-serif" font-size="14" text-anchor="middle" font-weight="400" fill="#111827">0.02</text>
<line x1="913.82" y1="150.00" x2="913.82" y2="410.00" stroke="#e5e7eb" stroke-width="1.00" />
<line x1="913.82" y1="530.00" x2="913.82" y2="790.00" stroke="#e5e7eb" stroke-width="1.00" />
<text x="913.82" y="438.00" font-family="Helvetica, Arial, sans-serif" font-size="14" text-anchor="middle" font-weight="400" fill="#111827">0.05</text>
<text x="913.82" y="818.00" font-family="Helvetica, Arial, sans-serif" font-size="14" text-anchor="middle" font-weight="400" fill="#111827">0.05</text>
<line x1="1260.00" y1="150.00" x2="1260.00" y2="410.00" stroke="#e5e7eb" stroke-width="1.00" />
<line x1="1260.00" y1="530.00" x2="1260.00" y2="790.00" stroke="#e5e7eb" stroke-width="1.00" />
<text x="1260.00" y="438.00" font-family="Helvetica, Arial, sans-serif" font-size="14" text-anchor="middle" font-weight="400" fill="#111827">0.10</text>
<text x="1260.00" y="818.00" font-family="Helvetica, Arial, sans-serif" font-size="14" text-anchor="middle" font-weight="400" fill="#111827">0.10</text>
<line x1="110.00" y1="150.00" x2="110.00" y2="410.00" stroke="#111827" stroke-width="1.50" />
<line x1="110.00" y1="410.00" x2="1260.00" y2="410.00" stroke="#111827" stroke-width="1.50" />
<line x1="110.00" y1="530.00" x2="110.00" y2="790.00" stroke="#111827" stroke-width="1.50" />
<line x1="110.00" y1="790.00" x2="1260.00" y2="790.00" stroke="#111827" stroke-width="1.50" />
<text x="685.00" y="468.00" font-family="Helvetica, Arial, sans-serif" font-size="18" text-anchor="middle" font-weight="400" fill="#111827">Target boundary error ε</text>
<text x="685.00" y="848.00" font-family="Helvetica, Arial, sans-serif" font-size="18" text-anchor="middle" font-weight="400" fill="#111827">Target boundary error ε</text>
<text x="46.00" y="280.00" transform="rotate(-90.0 46.00 280.00)" font-family="Helvetica, Arial, sans-serif" font-size="18" text-anchor="middle" font-weight="400" fill="#111827">Required mean photons n̄</text>
<text x="46.00" y="660.00" transform="rotate(-90.0 46.00 660.00)" font-family="Helvetica, Arial, sans-serif" font-size="18" text-anchor="middle" font-weight="400" fill="#111827">Penalty ratio n̄ / n̄LB</text>
<text x="110.00" y="126.00" font-family="Helvetica, Arial, sans-serif" font-size="18" text-anchor="start" font-weight="600" fill="#111827">Photon cost versus target boundary error</text>
<text x="110.00" y="506.00" font-family="Helvetica, Arial, sans-serif" font-size="18" text-anchor="start" font-weight="600" fill="#111827">Constant-factor overhead above the lower bound</text>
<polyline fill="none" stroke="#111827" stroke-width="3.80" points="110.00,340.04 117.23,340.35 124.47,340.66 131.70,340.97 138.93,341.28 146.16,341.59 153.40,341.90 160.63,342.21 167.86,342.52 175.09,342.83 182.33,343.14 189.56,343.45 196.79,343.76 204.03,344.07 211.26,344.38 218.49,344.69 225.72,345.00 232.96,345.31 240.19,345.62 247.42,345.93 254.65,346.24 261.89,346.55 269.12,346.86 276.35,347.17 283.58,347.48 290.82,347.79 298.05,348.10 305.28,348.41 312.52,348.72 319.75,349.02 326.98,349.33 334.21,349.64 341.45,349.95 348.68,350.26 355.91,350.57 363.14,350.88 370.38,351.19 377.61,351.49 384.84,351.80 392.08,352.11 399.31,352.42 406.54,352.73 413.77,353.03 421.01,353.34 428.24,353.65 435.47,353.96 442.70,354.27 449.94,354.57 457.17,354.88 464.40,355.19 471.64,355.49 478.87,355.80 486.10,356.11 493.33,356.42 500.57,356.72 507.80,357.03 515.03,357.34 522.26,357.64 529.50,357.95 536.73,358.25 543.96,358.56 551.19,358.87 558.43,359.17 565.66,359.48 572.89,359.78 580.13,360.09 587.36,360.40 594.59,360.70 601.82,361.01 609.06,361.31 616.29,361.62 623.52,361.92 630.75,362.23 637.99,362.53 645.22,362.83 652.45,363.14 659.69,363.44 666.92,363.75 674.15,364.05 681.38,364.35 688.62,364.66 695.85,364.96 703.08,365.26 710.31,365.57 717.55,365.87 724.78,366.17 732.01,366.48 739.25,366.78 746.48,367.08 753.71,367.38 760.94,367.68 768.18,367.99 775.41,368.29 782.64,368.59 789.87,368.89 797.11,369.19 804.34,369.49 811.57,369.79 818.81,370.09 826.04,370.39 833.27,370.69 840.50,370.99 847.74,371.29 854.97,371.59 862.20,371.89 869.43,372.19 876.67,372.49 883.90,372.79 891.13,373.08 898.36,373.38 905.60,373.68 912.83,373.98 920.06,374.27 927.30,374.57 934.53,374.87 941.76,375.16 948.99,375.46 956.23,375.76 963.46,376.05 970.69,376.35 977.92,376.64 985.16,376.94 992.39,377.23 999.62,377.53 1006.86,377.82 1014.09,378.11 1021.32,378.41 1028.55,378.70 1035.79,378.99 1043.02,379.28 1050.25,379.58 1057.48,379.87 1064.72,380.16 1071.95,380.45 1079.18,380.74 1086.42,381.03 1093.65,381.32 1100.88,381.61 1108.11,381.90 1115.35,382.19 1122.58,382.47 1129.81,382.76 1137.04,383.05 1144.28,383.34 1151.51,383.62 1158.74,383.91 1165.97,384.19 1173.21,384.48 1180.44,384.76 1187.67,385.05 1194.91,385.33 1202.14,385.62 1209.37,385.90 1216.60,386.18 1223.84,386.46 1231.07,386.74 1238.30,387.03 1245.53,387.31 1252.77,387.59 1260.00,387.86" />
<polyline fill="none" stroke="#2563eb" stroke-width="3.00" points="110.00,291.56 117.23,292.11 124.47,292.66 131.70,293.22 138.93,293.77 146.16,294.32 153.40,294.87 160.63,295.42 167.86,295.98 175.09,296.53 182.33,297.08 189.56,297.63 196.79,298.18 204.03,298.73 211.26,299.28 218.49,299.83 225.72,300.37 232.96,300.92 240.19,301.47 247.42,302.02 254.65,302.57 261.89,303.11 269.12,303.66 276.35,304.21 283.58,304.75 290.82,305.30 298.05,305.85 305.28,306.39 312.52,306.94 319.75,307.48 326.98,308.02 334.21,308.57 341.45,309.11 348.68,309.66 355.91,310.20 363.14,310.74 370.38,311.28 377.61,311.83 384.84,312.37 392.08,312.91 399.31,313.45 406.54,313.99 413.77,314.53 421.01,315.07 428.24,315.61 435.47,316.15 442.70,316.69 449.94,317.22 457.17,317.76 464.40,318.30 471.64,318.84 478.87,319.37 486.10,319.91 493.33,320.45 500.57,320.98 507.80,321.52 515.03,322.05 522.26,322.59 529.50,323.12 536.73,323.65 543.96,324.19 551.19,324.72 558.43,325.25 565.66,325.78 572.89,326.31 580.13,326.85 587.36,327.38 594.59,327.91 601.82,328.44 609.06,328.96 616.29,329.49 623.52,330.02 630.75,330.55 637.99,331.08 645.22,331.60 652.45,332.13 659.69,332.65 666.92,333.18 674.15,333.71 681.38,334.23 688.62,334.75 695.85,335.28 703.08,335.80 710.31,336.32 717.55,336.84 724.78,337.36 732.01,337.89 739.25,338.41 746.48,338.93 753.71,339.44 760.94,339.96 768.18,340.48 775.41,341.00 782.64,341.52 789.87,342.03 797.11,342.55 804.34,343.06 811.57,343.58 818.81,344.09 826.04,344.61 833.27,345.12 840.50,345.63 847.74,346.14 854.97,346.65 862.20,347.16 869.43,347.67 876.67,348.18 883.90,348.69 891.13,349.20 898.36,349.71 905.60,350.21 912.83,350.72 920.06,351.22 927.30,351.73 934.53,352.23 941.76,352.74 948.99,353.24 956.23,353.74 963.46,354.24 970.69,354.74 977.92,355.24 985.16,355.74 992.39,356.24 999.62,356.74 1006.86,357.23 1014.09,357.73 1021.32,358.22 1028.55,358.72 1035.79,359.21 1043.02,359.70 1050.25,360.19 1057.48,360.69 1064.72,361.18 1071.95,361.66 1079.18,362.15 1086.42,362.64 1093.65,363.13 1100.88,363.61 1108.11,364.10 1115.35,364.58 1122.58,365.07 1129.81,365.55 1137.04,366.03 1144.28,366.51 1151.51,366.99 1158.74,367.47 1165.97,367.94 1173.21,368.42 1180.44,368.90 1187.67,369.37 1194.91,369.84 1202.14,370.32 1209.37,370.79 1216.60,371.26 1223.84,371.73 1231.07,372.20 1238.30,372.66 1245.53,373.13 1252.77,373.59 1260.00,374.06" />
<polyline fill="none" stroke="#2563eb" stroke-width="3.00" points="110.00,720.70 117.23,720.74 124.47,720.78 131.70,720.82 138.93,720.86 146.16,720.90 153.40,720.94 160.63,720.98 167.86,721.02 175.09,721.06 182.33,721.10 189.56,721.14 196.79,721.18 204.03,721.22 211.26,721.26 218.49,721.30 225.72,721.34 232.96,721.38 240.19,721.42 247.42,721.46 254.65,721.50 261.89,721.54 269.12,721.58 276.35,721.62 283.58,721.66 290.82,721.70 298.05,721.74 305.28,721.78 312.52,721.83 319.75,721.87 326.98,721.91 334.21,721.95 341.45,721.99 348.68,722.03 355.91,722.07 363.14,722.11 370.38,722.16 377.61,722.20 384.84,722.24 392.08,722.28 399.31,722.32 406.54,722.37 413.77,722.41 421.01,722.45 428.24,722.49 435.47,722.53 442.70,722.58 449.94,722.62 457.17,722.66 464.40,722.70 471.64,722.75 478.87,722.79 486.10,722.83 493.33,722.87 500.57,722.92 507.80,722.96 515.03,723.00 522.26,723.04 529.50,723.09 536.73,723.13 543.96,723.17 551.19,723.22 558.43,723.26 565.66,723.30 572.89,723.35 580.13,723.39 587.36,723.43 594.59,723.48 601.82,723.52 609.06,723.56 616.29,723.61 623.52,723.65 630.75,723.70 637.99,723.74 645.22,723.78 652.45,723.83 659.69,723.87 666.92,723.91 674.15,723.96 681.38,724.00 688.62,724.05 695.85,724.09 703.08,724.14 710.31,724.18 717.55,724.22 724.78,724.27 732.01,724.31 739.25,724.36 746.48,724.40 753.71,724.45 760.94,724.49 768.18,724.54 775.41,724.58 782.64,724.62 789.87,724.67 797.11,724.71 804.34,724.76 811.57,724.80 818.81,724.85 826.04,724.89 833.27,724.94 840.50,724.98 847.74,725.03 854.97,725.07 862.20,725.12 869.43,725.16 876.67,725.21 883.90,725.25 891.13,725.30 898.36,725.34 905.60,725.39 912.83,725.44 920.06,725.48 927.30,725.53 934.53,725.57 941.76,725.62 948.99,725.66 956.23,725.71 963.46,725.75 970.69,725.80 977.92,725.84 985.16,725.89 992.39,725.94 999.62,725.98 1006.86,726.03 1014.09,726.07 1021.32,726.12 1028.55,726.16 1035.79,726.21 1043.02,726.25 1050.25,726.30 1057.48,726.35 1064.72,726.39 1071.95,726.44 1079.18,726.48 1086.42,726.53 1093.65,726.57 1100.88,726.62 1108.11,726.67 1115.35,726.71 1122.58,726.76 1129.81,726.80 1137.04,726.85 1144.28,726.89 1151.51,726.94 1158.74,726.98 1165.97,727.03 1173.21,727.08 1180.44,727.12 1187.67,727.17 1194.91,727.21 1202.14,727.26 1209.37,727.30 1216.60,727.35 1223.84,727.39 1231.07,727.44 1238.30,727.48 1245.53,727.53 1252.77,727.57 1260.00,727.62" />
<polyline fill="none" stroke="#b91c1c" stroke-width="3.00" stroke-dasharray="10 7" points="110.00,324.38 117.23,324.70 124.47,325.02 131.70,325.33 138.93,325.65 146.16,325.97 153.40,326.28 160.63,326.60 167.86,326.92 175.09,327.24 182.33,327.55 189.56,327.87 196.79,328.19 204.03,328.50 211.26,328.82 218.49,329.14 225.72,329.45 232.96,329.77 240.19,330.09 247.42,330.41 254.65,330.72 261.89,331.04 269.12,331.36 276.35,331.67 283.58,331.99 290.82,332.31 298.05,332.62 305.28,332.94 312.52,333.26 319.75,333.57 326.98,333.89 334.21,334.21 341.45,334.53 348.68,334.84 355.91,335.16 363.14,335.48 370.38,335.79 377.61,336.11 384.84,336.43 392.08,336.74 399.31,337.06 406.54,337.38 413.77,337.69 421.01,338.01 428.24,338.33 435.47,338.65 442.70,338.96 449.94,339.28 457.17,339.60 464.40,339.91 471.64,340.23 478.87,340.55 486.10,340.86 493.33,341.18 500.57,341.50 507.80,341.81 515.03,342.13 522.26,342.45 529.50,342.77 536.73,343.08 543.96,343.40 551.19,343.72 558.43,344.03 565.66,344.35 572.89,344.67 580.13,344.98 587.36,345.30 594.59,345.62 601.82,345.94 609.06,346.25 616.29,346.57 623.52,346.89 630.75,347.20 637.99,347.52 645.22,347.84 652.45,348.15 659.69,348.47 666.92,348.79 674.15,349.10 681.38,349.42 688.62,349.74 695.85,350.06 703.08,350.37 710.31,350.69 717.55,351.01 724.78,351.32 732.01,351.64 739.25,351.96 746.48,352.27 753.71,352.59 760.94,352.91 768.18,353.22 775.41,353.54 782.64,353.86 789.87,354.18 797.11,354.49 804.34,354.81 811.57,355.13 818.81,355.44 826.04,355.76 833.27,356.08 840.50,356.39 847.74,356.71 854.97,357.03 862.20,357.34 869.43,357.66 876.67,357.98 883.90,358.30 891.13,358.61 898.36,358.93 905.60,359.25 912.83,359.56 920.06,359.88 927.30,360.20 934.53,360.51 941.76,360.83 948.99,361.15 956.23,361.47 963.46,361.78 970.69,362.10 977.92,362.42 985.16,362.73 992.39,363.05 999.62,363.37 1006.86,363.68 1014.09,364.00 1021.32,364.32 1028.55,364.63 1035.79,364.95 1043.02,365.27 1050.25,365.59 1057.48,365.90 1064.72,366.22 1071.95,366.54 1079.18,366.85 1086.42,367.17 1093.65,367.49 1100.88,367.80 1108.11,368.12 1115.35,368.44 1122.58,368.75 1129.81,369.07 1137.04,369.39 1144.28,369.71 1151.51,370.02 1158.74,370.34 1165.97,370.66 1173.21,370.97 1180.44,371.29 1187.67,371.61 1194.91,371.92 1202.14,372.24 1209.37,372.56 1216.60,372.87 1223.84,373.19 1231.07,373.51 1238.30,373.83 1245.53,374.14 1252.77,374.46 1260.00,374.78" />
<polyline fill="none" stroke="#b91c1c" stroke-width="3.00" stroke-dasharray="10 7" points="110.00,767.62 117.23,767.53 124.47,767.44 131.70,767.35 138.93,767.25 146.16,767.16 153.40,767.07 160.63,766.97 167.86,766.87 175.09,766.78 182.33,766.68 189.56,766.58 196.79,766.48 204.03,766.38 211.26,766.28 218.49,766.18 225.72,766.08 232.96,765.97 240.19,765.87 247.42,765.76 254.65,765.66 261.89,765.55 269.12,765.44 276.35,765.34 283.58,765.23 290.82,765.11 298.05,765.00 305.28,764.89 312.52,764.78 319.75,764.66 326.98,764.55 334.21,764.43 341.45,764.31 348.68,764.19 355.91,764.07 363.14,763.95 370.38,763.83 377.61,763.71 384.84,763.58 392.08,763.46 399.31,763.33 406.54,763.20 413.77,763.07 421.01,762.94 428.24,762.81 435.47,762.68 442.70,762.54 449.94,762.41 457.17,762.27 464.40,762.13 471.64,761.99 478.87,761.85 486.10,761.71 493.33,761.57 500.57,761.42 507.80,761.28 515.03,761.13 522.26,760.98 529.50,760.83 536.73,760.68 543.96,760.53 551.19,760.37 558.43,760.21 565.66,760.06 572.89,759.90 580.13,759.73 587.36,759.57 594.59,759.41 601.82,759.24 609.06,759.07 616.29,758.90 623.52,758.73 630.75,758.56 637.99,758.38 645.22,758.20 652.45,758.02 659.69,757.84 666.92,757.66 674.15,757.47 681.38,757.29 688.62,757.10 695.85,756.90 703.08,756.71 710.31,756.51 717.55,756.32 724.78,756.12 732.01,755.91 739.25,755.71 746.48,755.50 753.71,755.29 760.94,755.08 768.18,754.87 775.41,754.65 782.64,754.43 789.87,754.21 797.11,753.98 804.34,753.76 811.57,753.53 818.81,753.29 826.04,753.06 833.27,752.82 840.50,752.58 847.74,752.33 854.97,752.08 862.20,751.83 869.43,751.58 876.67,751.32 883.90,751.06 891.13,750.80 898.36,750.53 905.60,750.26 912.83,749.99 920.06,749.71 927.30,749.43 934.53,749.14 941.76,748.86 948.99,748.56 956.23,748.27 963.46,747.97 970.69,747.66 977.92,747.35 985.16,747.04 992.39,746.72 999.62,746.40 1006.86,746.08 1014.09,745.75 1021.32,745.41 1028.55,745.07 1035.79,744.72 1043.02,744.37 1050.25,744.02 1057.48,743.66 1064.72,743.29 1071.95,742.92 1079.18,742.54 1086.42,742.16 1093.65,741.77 1100.88,741.38 1108.11,740.98 1115.35,740.57 1122.58,740.16 1129.81,739.74 1137.04,739.31 1144.28,738.88 1151.51,738.44 1158.74,737.99 1165.97,737.54 1173.21,737.08 1180.44,736.61 1187.67,736.13 1194.91,735.64 1202.14,735.15 1209.37,734.65 1216.60,734.14 1223.84,733.62 1231.07,733.09 1238.30,732.55 1245.53,732.00 1252.77,731.44 1260.00,730.88" />
<polyline fill="none" stroke="#60a5fa" stroke-width="3.00" points="110.00,242.49 117.23,243.27 124.47,244.05 131.70,244.83 138.93,245.62 146.16,246.40 153.40,247.18 160.63,247.96 167.86,248.74 175.09,249.52 182.33,250.29 189.56,251.07 196.79,251.85 204.03,252.63 211.26,253.40 218.49,254.18 225.72,254.96 232.96,255.73 240.19,256.51 247.42,257.28 254.65,258.06 261.89,258.83 269.12,259.61 276.35,260.38 283.58,261.15 290.82,261.92 298.05,262.70 305.28,263.47 312.52,264.24 319.75,265.01 326.98,265.78 334.21,266.55 341.45,267.32 348.68,268.08 355.91,268.85 363.14,269.62 370.38,270.39 377.61,271.15 384.84,271.92 392.08,272.68 399.31,273.45 406.54,274.21 413.77,274.98 421.01,275.74 428.24,276.50 435.47,277.27 442.70,278.03 449.94,278.79 457.17,279.55 464.40,280.31 471.64,281.07 478.87,281.83 486.10,282.59 493.33,283.35 500.57,284.10 507.80,284.86 515.03,285.62 522.26,286.37 529.50,287.13 536.73,287.88 543.96,288.63 551.19,289.39 558.43,290.14 565.66,290.89 572.89,291.64 580.13,292.40 587.36,293.15 594.59,293.89 601.82,294.64 609.06,295.39 616.29,296.14 623.52,296.89 630.75,297.63 637.99,298.38 645.22,299.12 652.45,299.87 659.69,300.61 666.92,301.35 674.15,302.10 681.38,302.84 688.62,303.58 695.85,304.32 703.08,305.06 710.31,305.80 717.55,306.54 724.78,307.27 732.01,308.01 739.25,308.75 746.48,309.48 753.71,310.21 760.94,310.95 768.18,311.68 775.41,312.41 782.64,313.14 789.87,313.87 797.11,314.60 804.34,315.33 811.57,316.06 818.81,316.79 826.04,317.51 833.27,318.24 840.50,318.96 847.74,319.69 854.97,320.41 862.20,321.13 869.43,321.85 876.67,322.57 883.90,323.29 891.13,324.01 898.36,324.73 905.60,325.44 912.83,326.16 920.06,326.87 927.30,327.59 934.53,328.30 941.76,329.01 948.99,329.72 956.23,330.43 963.46,331.14 970.69,331.85 977.92,332.55 985.16,333.26 992.39,333.96 999.62,334.67 1006.86,335.37 1014.09,336.07 1021.32,336.77 1028.55,337.47 1035.79,338.17 1043.02,338.87 1050.25,339.56 1057.48,340.26 1064.72,340.95 1071.95,341.64 1079.18,342.33 1086.42,343.02 1093.65,343.71 1100.88,344.40 1108.11,345.08 1115.35,345.77 1122.58,346.45 1129.81,347.13 1137.04,347.81 1144.28,348.49 1151.51,349.17 1158.74,349.85 1165.97,350.52 1173.21,351.20 1180.44,351.87 1187.67,352.54 1194.91,353.21 1202.14,353.88 1209.37,354.54 1216.60,355.21 1223.84,355.87 1231.07,356.53 1238.30,357.19 1245.53,357.85 1252.77,358.51 1260.00,359.16" />
<polyline fill="none" stroke="#60a5fa" stroke-width="3.00" points="110.00,650.56 117.23,650.62 124.47,650.67 131.70,650.73 138.93,650.78 146.16,650.84 153.40,650.90 160.63,650.95 167.86,651.01 175.09,651.07 182.33,651.12 189.56,651.18 196.79,651.23 204.03,651.29 211.26,651.35 218.49,651.40 225.72,651.46 232.96,651.52 240.19,651.58 247.42,651.63 254.65,651.69 261.89,651.75 269.12,651.81 276.35,651.86 283.58,651.92 290.82,651.98 298.05,652.04 305.28,652.09 312.52,652.15 319.75,652.21 326.98,652.27 334.21,652.33 341.45,652.39 348.68,652.45 355.91,652.50 363.14,652.56 370.38,652.62 377.61,652.68 384.84,652.74 392.08,652.80 399.31,652.86 406.54,652.92 413.77,652.98 421.01,653.04 428.24,653.10 435.47,653.16 442.70,653.21 449.94,653.27 457.17,653.33 464.40,653.39 471.64,653.45 478.87,653.51 486.10,653.58 493.33,653.64 500.57,653.70 507.80,653.76 515.03,653.82 522.26,653.88 529.50,653.94 536.73,654.00 543.96,654.06 551.19,654.12 558.43,654.18 565.66,654.24 572.89,654.30 580.13,654.37 587.36,654.43 594.59,654.49 601.82,654.55 609.06,654.61 616.29,654.67 623.52,654.74 630.75,654.80 637.99,654.86 645.22,654.92 652.45,654.98 659.69,655.05 666.92,655.11 674.15,655.17 681.38,655.23 688.62,655.29 695.85,655.36 703.08,655.42 710.31,655.48 717.55,655.54 724.78,655.61 732.01,655.67 739.25,655.73 746.48,655.80 753.71,655.86 760.94,655.92 768.18,655.99 775.41,656.05 782.64,656.11 789.87,656.18 797.11,656.24 804.34,656.30 811.57,656.37 818.81,656.43 826.04,656.49 833.27,656.56 840.50,656.62 847.74,656.68 854.97,656.75 862.20,656.81 869.43,656.87 876.67,656.94 883.90,657.00 891.13,657.07 898.36,657.13 905.60,657.19 912.83,657.26 920.06,657.32 927.30,657.39 934.53,657.45 941.76,657.52 948.99,657.58 956.23,657.64 963.46,657.71 970.69,657.77 977.92,657.84 985.16,657.90 992.39,657.97 999.62,658.03 1006.86,658.09 1014.09,658.16 1021.32,658.22 1028.55,658.29 1035.79,658.35 1043.02,658.42 1050.25,658.48 1057.48,658.55 1064.72,658.61 1071.95,658.68 1079.18,658.74 1086.42,658.80 1093.65,658.87 1100.88,658.93 1108.11,659.00 1115.35,659.06 1122.58,659.13 1129.81,659.19 1137.04,659.26 1144.28,659.32 1151.51,659.38 1158.74,659.45 1165.97,659.51 1173.21,659.58 1180.44,659.64 1187.67,659.71 1194.91,659.77 1202.14,659.84 1209.37,659.90 1216.60,659.96 1223.84,660.03 1231.07,660.09 1238.30,660.16 1245.53,660.22 1252.77,660.28 1260.00,660.35" />
<polyline fill="none" stroke="#ef4444" stroke-width="3.00" stroke-dasharray="10 7" points="110.00,288.91 117.23,289.36 124.47,289.81 131.70,290.26 138.93,290.71 146.16,291.15 153.40,291.60 160.63,292.05 167.86,292.50 175.09,292.95 182.33,293.40 189.56,293.84 196.79,294.29 204.03,294.74 211.26,295.19 218.49,295.64 225.72,296.09 232.96,296.53 240.19,296.98 247.42,297.43 254.65,297.88 261.89,298.33 269.12,298.77 276.35,299.22 283.58,299.67 290.82,300.12 298.05,300.57 305.28,301.02 312.52,301.46 319.75,301.91 326.98,302.36 334.21,302.81 341.45,303.26 348.68,303.71 355.91,304.15 363.14,304.60 370.38,305.05 377.61,305.50 384.84,305.95 392.08,306.40 399.31,306.84 406.54,307.29 413.77,307.74 421.01,308.19 428.24,308.64 435.47,309.08 442.70,309.53 449.94,309.98 457.17,310.43 464.40,310.88 471.64,311.33 478.87,311.77 486.10,312.22 493.33,312.67 500.57,313.12 507.80,313.57 515.03,314.02 522.26,314.46 529.50,314.91 536.73,315.36 543.96,315.81 551.19,316.26 558.43,316.70 565.66,317.15 572.89,317.60 580.13,318.05 587.36,318.50 594.59,318.95 601.82,319.39 609.06,319.84 616.29,320.29 623.52,320.74 630.75,321.19 637.99,321.64 645.22,322.08 652.45,322.53 659.69,322.98 666.92,323.43 674.15,323.88 681.38,324.32 688.62,324.77 695.85,325.22 703.08,325.67 710.31,326.12 717.55,326.57 724.78,327.01 732.01,327.46 739.25,327.91 746.48,328.36 753.71,328.81 760.94,329.26 768.18,329.70 775.41,330.15 782.64,330.60 789.87,331.05 797.11,331.50 804.34,331.94 811.57,332.39 818.81,332.84 826.04,333.29 833.27,333.74 840.50,334.19 847.74,334.63 854.97,335.08 862.20,335.53 869.43,335.98 876.67,336.43 883.90,336.88 891.13,337.32 898.36,337.77 905.60,338.22 912.83,338.67 920.06,339.12 927.30,339.56 934.53,340.01 941.76,340.46 948.99,340.91 956.23,341.36 963.46,341.81 970.69,342.25 977.92,342.70 985.16,343.15 992.39,343.60 999.62,344.05 1006.86,344.50 1014.09,344.94 1021.32,345.39 1028.55,345.84 1035.79,346.29 1043.02,346.74 1050.25,347.19 1057.48,347.63 1064.72,348.08 1071.95,348.53 1079.18,348.98 1086.42,349.43 1093.65,349.87 1100.88,350.32 1108.11,350.77 1115.35,351.22 1122.58,351.67 1129.81,352.12 1137.04,352.56 1144.28,353.01 1151.51,353.46 1158.74,353.91 1165.97,354.36 1173.21,354.81 1180.44,355.25 1187.67,355.70 1194.91,356.15 1202.14,356.60 1209.37,357.05 1216.60,357.49 1223.84,357.94 1231.07,358.39 1238.30,358.84 1245.53,359.29 1252.77,359.74 1260.00,360.18" />
<polyline fill="none" stroke="#ef4444" stroke-width="3.00" stroke-dasharray="10 7" points="110.00,716.92 117.23,716.79 124.47,716.66 131.70,716.53 138.93,716.40 146.16,716.27 153.40,716.14 160.63,716.00 167.86,715.87 175.09,715.73 182.33,715.59 189.56,715.45 196.79,715.31 204.03,715.17 211.26,715.03 218.49,714.88 225.72,714.74 232.96,714.59 240.19,714.44 247.42,714.30 254.65,714.15 261.89,713.99 269.12,713.84 276.35,713.69 283.58,713.53 290.82,713.38 298.05,713.22 305.28,713.06 312.52,712.90 319.75,712.74 326.98,712.57 334.21,712.41 341.45,712.24 348.68,712.07 355.91,711.90 363.14,711.73 370.38,711.56 377.61,711.38 384.84,711.21 392.08,711.03 399.31,710.85 406.54,710.67 413.77,710.49 421.01,710.30 428.24,710.12 435.47,709.93 442.70,709.74 449.94,709.55 457.17,709.36 464.40,709.16 471.64,708.96 478.87,708.77 486.10,708.56 493.33,708.36 500.57,708.16 507.80,707.95 515.03,707.74 522.26,707.53 529.50,707.32 536.73,707.10 543.96,706.89 551.19,706.67 558.43,706.45 565.66,706.22 572.89,706.00 580.13,705.77 587.36,705.54 594.59,705.30 601.82,705.07 609.06,704.83 616.29,704.59 623.52,704.35 630.75,704.10 637.99,703.85 645.22,703.60 652.45,703.35 659.69,703.09 666.92,702.83 674.15,702.57 681.38,702.30 688.62,702.04 695.85,701.76 703.08,701.49 710.31,701.21 717.55,700.93 724.78,700.65 732.01,700.36 739.25,700.07 746.48,699.78 753.71,699.49 760.94,699.19 768.18,698.88 775.41,698.58 782.64,698.27 789.87,697.95 797.11,697.63 804.34,697.31 811.57,696.99 818.81,696.66 826.04,696.32 833.27,695.99 840.50,695.64 847.74,695.30 854.97,694.95 862.20,694.59 869.43,694.23 876.67,693.87 883.90,693.50 891.13,693.13 898.36,692.75 905.60,692.37 912.83,691.98 920.06,691.59 927.30,691.19 934.53,690.79 941.76,690.38 948.99,689.97 956.23,689.55 963.46,689.12 970.69,688.69 977.92,688.26 985.16,687.82 992.39,687.37 999.62,686.91 1006.86,686.45 1014.09,685.98 1021.32,685.51 1028.55,685.03 1035.79,684.54 1043.02,684.04 1050.25,683.54 1057.48,683.03 1064.72,682.51 1071.95,681.99 1079.18,681.46 1086.42,680.91 1093.65,680.36 1100.88,679.81 1108.11,679.24 1115.35,678.67 1122.58,678.08 1129.81,677.49 1137.04,676.89 1144.28,676.27 1151.51,675.65 1158.74,675.02 1165.97,674.38 1173.21,673.72 1180.44,673.06 1187.67,672.38 1194.91,671.70 1202.14,671.00 1209.37,670.29 1216.60,669.56 1223.84,668.83 1231.07,668.08 1238.30,667.32 1245.53,666.55 1252.77,665.76 1260.00,664.95" />
<polyline fill="none" stroke="#93c5fd" stroke-width="3.00" points="110.00,175.48 117.23,176.58 124.47,177.67 131.70,178.77 138.93,179.86 146.16,180.96 153.40,182.05 160.63,183.14 167.86,184.23 175.09,185.32 182.33,186.41 189.56,187.50 196.79,188.59 204.03,189.68 211.26,190.77 218.49,191.85 225.72,192.94 232.96,194.03 240.19,195.11 247.42,196.20 254.65,197.28 261.89,198.36 269.12,199.45 276.35,200.53 283.58,201.61 290.82,202.69 298.05,203.77 305.28,204.85 312.52,205.93 319.75,207.01 326.98,208.09 334.21,209.17 341.45,210.24 348.68,211.32 355.91,212.39 363.14,213.47 370.38,214.54 377.61,215.61 384.84,216.69 392.08,217.76 399.31,218.83 406.54,219.90 413.77,220.97 421.01,222.04 428.24,223.11 435.47,224.17 442.70,225.24 449.94,226.31 457.17,227.37 464.40,228.43 471.64,229.50 478.87,230.56 486.10,231.62 493.33,232.68 500.57,233.74 507.80,234.80 515.03,235.86 522.26,236.92 529.50,237.98 536.73,239.03 543.96,240.09 551.19,241.14 558.43,242.20 565.66,243.25 572.89,244.30 580.13,245.35 587.36,246.40 594.59,247.45 601.82,248.50 609.06,249.55 616.29,250.60 623.52,251.64 630.75,252.69 637.99,253.73 645.22,254.77 652.45,255.82 659.69,256.86 666.92,257.90 674.15,258.94 681.38,259.97 688.62,261.01 695.85,262.05 703.08,263.08 710.31,264.12 717.55,265.15 724.78,266.18 732.01,267.21 739.25,268.24 746.48,269.27 753.71,270.30 760.94,271.33 768.18,272.35 775.41,273.38 782.64,274.40 789.87,275.42 797.11,276.45 804.34,277.47 811.57,278.48 818.81,279.50 826.04,280.52 833.27,281.53 840.50,282.55 847.74,283.56 854.97,284.57 862.20,285.58 869.43,286.59 876.67,287.60 883.90,288.61 891.13,289.61 898.36,290.62 905.60,291.62 912.83,292.62 920.06,293.62 927.30,294.62 934.53,295.62 941.76,296.62 948.99,297.61 956.23,298.60 963.46,299.60 970.69,300.59 977.92,301.58 985.16,302.56 992.39,303.55 999.62,304.54 1006.86,305.52 1014.09,306.50 1021.32,307.48 1028.55,308.46 1035.79,309.44 1043.02,310.41 1050.25,311.39 1057.48,312.36 1064.72,313.33 1071.95,314.30 1079.18,315.26 1086.42,316.23 1093.65,317.19 1100.88,318.15 1108.11,319.12 1115.35,320.07 1122.58,321.03 1129.81,321.98 1137.04,322.94 1144.28,323.89 1151.51,324.84 1158.74,325.79 1165.97,326.73 1173.21,327.67 1180.44,328.61 1187.67,329.55 1194.91,330.49 1202.14,331.43 1209.37,332.36 1216.60,333.29 1223.84,334.22 1231.07,335.15 1238.30,336.07 1245.53,336.99 1252.77,337.91 1260.00,338.83" />
<polyline fill="none" stroke="#93c5fd" stroke-width="3.00" points="110.00,554.79 117.23,554.86 124.47,554.94 131.70,555.02 138.93,555.10 146.16,555.18 153.40,555.26 160.63,555.33 167.86,555.41 175.09,555.49 182.33,555.57 189.56,555.65 196.79,555.73 204.03,555.81 211.26,555.89 218.49,555.97 225.72,556.05 232.96,556.13 240.19,556.21 247.42,556.29 254.65,556.37 261.89,556.45 269.12,556.53 276.35,556.61 283.58,556.69 290.82,556.77 298.05,556.85 305.28,556.93 312.52,557.01 319.75,557.10 326.98,557.18 334.21,557.26 341.45,557.34 348.68,557.42 355.91,557.51 363.14,557.59 370.38,557.67 377.61,557.75 384.84,557.83 392.08,557.92 399.31,558.00 406.54,558.08 413.77,558.17 421.01,558.25 428.24,558.33 435.47,558.42 442.70,558.50 449.94,558.58 457.17,558.67 464.40,558.75 471.64,558.84 478.87,558.92 486.10,559.01 493.33,559.09 500.57,559.17 507.80,559.26 515.03,559.34 522.26,559.43 529.50,559.51 536.73,559.60 543.96,559.68 551.19,559.77 558.43,559.86 565.66,559.94 572.89,560.03 580.13,560.11 587.36,560.20 594.59,560.28 601.82,560.37 609.06,560.46 616.29,560.54 623.52,560.63 630.75,560.72 637.99,560.80 645.22,560.89 652.45,560.98 659.69,561.06 666.92,561.15 674.15,561.24 681.38,561.33 688.62,561.41 695.85,561.50 703.08,561.59 710.31,561.68 717.55,561.76 724.78,561.85 732.01,561.94 739.25,562.03 746.48,562.11 753.71,562.20 760.94,562.29 768.18,562.38 775.41,562.47 782.64,562.56 789.87,562.65 797.11,562.73 804.34,562.82 811.57,562.91 818.81,563.00 826.04,563.09 833.27,563.18 840.50,563.27 847.74,563.36 854.97,563.45 862.20,563.54 869.43,563.62 876.67,563.71 883.90,563.80 891.13,563.89 898.36,563.98 905.60,564.07 912.83,564.16 920.06,564.25 927.30,564.34 934.53,564.43 941.76,564.52 948.99,564.61 956.23,564.70 963.46,564.79 970.69,564.88 977.92,564.97 985.16,565.06 992.39,565.15 999.62,565.24 1006.86,565.33 1014.09,565.42 1021.32,565.51 1028.55,565.60 1035.79,565.69 1043.02,565.78 1050.25,565.87 1057.48,565.96 1064.72,566.05 1071.95,566.15 1079.18,566.24 1086.42,566.33 1093.65,566.42 1100.88,566.51 1108.11,566.60 1115.35,566.69 1122.58,566.78 1129.81,566.87 1137.04,566.96 1144.28,567.05 1151.51,567.14 1158.74,567.23 1165.97,567.32 1173.21,567.41 1180.44,567.50 1187.67,567.59 1194.91,567.68 1202.14,567.77 1209.37,567.86 1216.60,567.95 1223.84,568.04 1231.07,568.13 1238.30,568.22 1245.53,568.31 1252.77,568.40 1260.00,568.49" />
<polyline fill="none" stroke="#fca5a5" stroke-width="3.00" stroke-dasharray="10 7" points="110.00,240.48 117.23,241.11 124.47,241.73 131.70,242.36 138.93,242.99 146.16,243.62 153.40,244.24 160.63,244.87 167.86,245.50 175.09,246.13 182.33,246.75 189.56,247.38 196.79,248.01 204.03,248.64 211.26,249.26 218.49,249.89 225.72,250.52 232.96,251.15 240.19,251.77 247.42,252.40 254.65,253.03 261.89,253.66 269.12,254.28 276.35,254.91 283.58,255.54 290.82,256.17 298.05,256.80 305.28,257.42 312.52,258.05 319.75,258.68 326.98,259.31 334.21,259.93 341.45,260.56 348.68,261.19 355.91,261.82 363.14,262.44 370.38,263.07 377.61,263.70 384.84,264.33 392.08,264.95 399.31,265.58 406.54,266.21 413.77,266.84 421.01,267.46 428.24,268.09 435.47,268.72 442.70,269.35 449.94,269.97 457.17,270.60 464.40,271.23 471.64,271.86 478.87,272.48 486.10,273.11 493.33,273.74 500.57,274.37 507.80,274.99 515.03,275.62 522.26,276.25 529.50,276.88 536.73,277.50 543.96,278.13 551.19,278.76 558.43,279.39 565.66,280.01 572.89,280.64 580.13,281.27 587.36,281.90 594.59,282.52 601.82,283.15 609.06,283.78 616.29,284.41 623.52,285.03 630.75,285.66 637.99,286.29 645.22,286.92 652.45,287.54 659.69,288.17 666.92,288.80 674.15,289.43 681.38,290.05 688.62,290.68 695.85,291.31 703.08,291.94 710.31,292.56 717.55,293.19 724.78,293.82 732.01,294.45 739.25,295.07 746.48,295.70 753.71,296.33 760.94,296.96 768.18,297.59 775.41,298.21 782.64,298.84 789.87,299.47 797.11,300.10 804.34,300.72 811.57,301.35 818.81,301.98 826.04,302.61 833.27,303.23 840.50,303.86 847.74,304.49 854.97,305.12 862.20,305.74 869.43,306.37 876.67,307.00 883.90,307.63 891.13,308.25 898.36,308.88 905.60,309.51 912.83,310.14 920.06,310.76 927.30,311.39 934.53,312.02 941.76,312.65 948.99,313.27 956.23,313.90 963.46,314.53 970.69,315.16 977.92,315.78 985.16,316.41 992.39,317.04 999.62,317.67 1006.86,318.29 1014.09,318.92 1021.32,319.55 1028.55,320.18 1035.79,320.80 1043.02,321.43 1050.25,322.06 1057.48,322.69 1064.72,323.31 1071.95,323.94 1079.18,324.57 1086.42,325.20 1093.65,325.82 1100.88,326.45 1108.11,327.08 1115.35,327.71 1122.58,328.33 1129.81,328.96 1137.04,329.59 1144.28,330.22 1151.51,330.84 1158.74,331.47 1165.97,332.10 1173.21,332.73 1180.44,333.35 1187.67,333.98 1194.91,334.61 1202.14,335.24 1209.37,335.86 1216.60,336.49 1223.84,337.12 1231.07,337.75 1238.30,338.38 1245.53,339.00 1252.77,339.63 1260.00,340.26" />
<polyline fill="none" stroke="#fca5a5" stroke-width="3.00" stroke-dasharray="10 7" points="110.00,647.69 117.23,647.51 124.47,647.33 131.70,647.15 138.93,646.96 146.16,646.78 153.40,646.59 160.63,646.40 167.86,646.21 175.09,646.02 182.33,645.83 189.56,645.63 196.79,645.44 204.03,645.24 211.26,645.04 218.49,644.84 225.72,644.63 232.96,644.43 240.19,644.22 247.42,644.01 254.65,643.80 261.89,643.59 269.12,643.38 276.35,643.16 283.58,642.95 290.82,642.73 298.05,642.51 305.28,642.28 312.52,642.06 319.75,641.83 326.98,641.60 334.21,641.37 341.45,641.14 348.68,640.90 355.91,640.66 363.14,640.42 370.38,640.18 377.61,639.94 384.84,639.69 392.08,639.44 399.31,639.19 406.54,638.94 413.77,638.68 421.01,638.43 428.24,638.17 435.47,637.90 442.70,637.64 449.94,637.37 457.17,637.10 464.40,636.83 471.64,636.55 478.87,636.27 486.10,635.99 493.33,635.71 500.57,635.42 507.80,635.13 515.03,634.84 522.26,634.54 529.50,634.25 536.73,633.94 543.96,633.64 551.19,633.33 558.43,633.02 565.66,632.71 572.89,632.39 580.13,632.07 587.36,631.75 594.59,631.42 601.82,631.09 609.06,630.76 616.29,630.42 623.52,630.08 630.75,629.74 637.99,629.39 645.22,629.04 652.45,628.68 659.69,628.33 666.92,627.96 674.15,627.60 681.38,627.22 688.62,626.85 695.85,626.47 703.08,626.09 710.31,625.70 717.55,625.31 724.78,624.91 732.01,624.51 739.25,624.10 746.48,623.69 753.71,623.28 760.94,622.86 768.18,622.44 775.41,622.01 782.64,621.57 789.87,621.13 797.11,620.69 804.34,620.24 811.57,619.78 818.81,619.32 826.04,618.85 833.27,618.38 840.50,617.90 847.74,617.42 854.97,616.93 862.20,616.43 869.43,615.93 876.67,615.42 883.90,614.90 891.13,614.38 898.36,613.85 905.60,613.32 912.83,612.78 920.06,612.23 927.30,611.67 934.53,611.11 941.76,610.54 948.99,609.96 956.23,609.37 963.46,608.77 970.69,608.17 977.92,607.56 985.16,606.94 992.39,606.31 999.62,605.68 1006.86,605.03 1014.09,604.38 1021.32,603.71 1028.55,603.04 1035.79,602.35 1043.02,601.66 1050.25,600.96 1057.48,600.24 1064.72,599.52 1071.95,598.78 1079.18,598.04 1086.42,597.28 1093.65,596.51 1100.88,595.73 1108.11,594.94 1115.35,594.13 1122.58,593.31 1129.81,592.48 1137.04,591.64 1144.28,590.78 1151.51,589.91 1158.74,589.03 1165.97,588.13 1173.21,587.21 1180.44,586.28 1187.67,585.34 1194.91,584.37 1202.14,583.40 1209.37,582.40 1216.60,581.39 1223.84,580.36 1231.07,579.31 1238.30,578.25 1245.53,577.16 1252.77,576.06 1260.00,574.93" />
<rect x="785.00" y="110.00" width="420.00" height="134.00" fill="#ffffff" stroke="#d1d5db" stroke-width="1.20" rx="4" ry="4" />
<line x1="805.00" y1="146.00" x2="849.00" y2="146.00" stroke="#111827" stroke-width="3.00" />
<text x="861.00" y="151.00" font-family="Helvetica, Arial, sans-serif" font-size="13" text-anchor="start" font-weight="400" fill="#111827">Lower bound</text>
<line x1="805.00" y1="164.00" x2="849.00" y2="164.00" stroke="#2563eb" stroke-width="3.00" />
<text x="861.00" y="169.00" font-family="Helvetica, Arial, sans-serif" font-size="13" text-anchor="start" font-weight="400" fill="#111827">Homodyne, η = 0.99</text>
<line x1="805.00" y1="182.00" x2="849.00" y2="182.00" stroke="#60a5fa" stroke-width="3.00" />
<text x="861.00" y="187.00" font-family="Helvetica, Arial, sans-serif" font-size="13" text-anchor="start" font-weight="400" fill="#111827">Homodyne, η = 0.70</text>
<line x1="805.00" y1="200.00" x2="849.00" y2="200.00" stroke="#93c5fd" stroke-width="3.00" />
<text x="861.00" y="205.00" font-family="Helvetica, Arial, sans-serif" font-size="13" text-anchor="start" font-weight="400" fill="#111827">Homodyne, η = 0.50</text>
<line x1="805.00" y1="218.00" x2="849.00" y2="218.00" stroke="#b91c1c" stroke-width="3.00" stroke-dasharray="10 7" />
<text x="861.00" y="223.00" font-family="Helvetica, Arial, sans-serif" font-size="13" text-anchor="start" font-weight="400" fill="#111827">Displaced on-off, η = 0.99</text>
<line x1="805.00" y1="236.00" x2="849.00" y2="236.00" stroke="#ef4444" stroke-width="3.00" stroke-dasharray="10 7" />
<text x="861.00" y="241.00" font-family="Helvetica, Arial, sans-serif" font-size="13" text-anchor="start" font-weight="400" fill="#111827">Displaced on-off, η = 0.70</text>
<line x1="805.00" y1="254.00" x2="849.00" y2="254.00" stroke="#fca5a5" stroke-width="3.00" stroke-dasharray="10 7" />
<text x="861.00" y="259.00" font-family="Helvetica, Arial, sans-serif" font-size="13" text-anchor="start" font-weight="400" fill="#111827">Displaced on-off, η = 0.50</text>
<line x1="134.37" y1="766.00" x2="344.74" y2="760.00" stroke="#7f1d1d" stroke-width="1.30" />
<text x="375.02" y="754.00" font-family="Helvetica, Arial, sans-serif" font-size="13" text-anchor="start" font-weight="600" fill="#111827">Low-error regime:</text>
<text x="375.02" y="770.00" font-family="Helvetica, Arial, sans-serif" font-size="13" text-anchor="start" font-weight="600" fill="#111827">displaced on-off moves</text>
<text x="375.02" y="786.00" font-family="Helvetica, Arial, sans-serif" font-size="13" text-anchor="start" font-weight="600" fill="#111827">closest to the bound</text>
<rect x="662.00" y="478.00" width="390.00" height="96.00" fill="#f9fafb" stroke="#d1d5db" stroke-width="1.00" rx="4" ry="4" />
<text x="680.00" y="514.00" font-family="Helvetica, Arial, sans-serif" font-size="15" text-anchor="start" font-weight="600" fill="#111827">Reviewer-safe claim boundary:</text>
<text x="680.00" y="536.00" font-family="Helvetica, Arial, sans-serif" font-size="14" text-anchor="start" font-weight="400" fill="#111827">Detector efficiency sets the shared 1/η penalty.</text>
<text x="680.00" y="556.00" font-family="Helvetica, Arial, sans-serif" font-size="14" text-anchor="start" font-weight="400" fill="#111827">Measurement choice sets the remaining prefactor.</text>
<text x="680.00" y="576.00" font-family="Helvetica, Arial, sans-serif" font-size="14" text-anchor="start" font-weight="400" fill="#111827">Neither route is claimed to be globally optimal.</text>
<text x="110.00" y="896.00" font-family="Helvetica, Arial, sans-serif" font-size="13" text-anchor="start" font-weight="400" fill="#111827">Curves computed from the saved analytical models in same_axis_metrics.py; lower panel bands mark near-frontier, moderate-overhead and detector-limited regimes within this benchmark.</text>
</svg>